<?xml version="1.0" standalone="no"?>
<!DOCTYPE svg PUBLIC "-//W3C//DTD SVG 20010904//EN"
 "http://www.w3.org/TR/2001/REC-SVG-20010904/DTD/svg10.dtd">
<svg version="1.0" xmlns="http://www.w3.org/2000/svg"
 width="280" height="auto" viewBox="0 0 954.000000 140.000000"
 preserveAspectRatio="xMidYMid meet">
<metadata>
Created by potrace 1.13, written by Peter Selinger 2001-2015
</metadata>
<g transform="translate(0.000000,140.000000) scale(0.100000,-0.100000)"
 stroke="none">
<path fill="#1c2d3d" d="M170 1373 c-59 -29 -82 -76 -66 -134 22 -79 193 -88 271 -14 29 26
35 40 35 72 0 57 -35 90 -103 97 -73 7 -84 6 -137 -21z"/>
<path fill="#1c2d3d" d="M3826 1385 c-52 -18 -85 -53 -96 -99 -7 -33 -5 -41 18 -67 65 -72
221 -55 278 29 36 52 12 114 -52 137 -50 18 -98 18 -148 0z"/>
<path  fill="#ef4b23" d="M6582 1305 c-32 -10 -159 -69 -170 -80 -4 -4 34 -60 56 -83 14 -16
14 -22 -26 -257 -17 -99 -34 -198 -37 -220 -4 -22 -8 -51 -11 -65 -2 -14 -7
-61 -10 -105 -10 -134 19 -195 101 -212 54 -12 106 -2 155 31 35 23 39 30 29
42 -18 22 -21 161 -5 221 40 150 145 281 242 303 30 7 37 5 50 -15 18 -27 14
-63 -21 -200 -36 -139 -40 -161 -40 -237 0 -74 19 -112 69 -136 57 -28 155
-11 208 35 14 13 15 18 3 48 -19 43 -12 162 15 285 67 298 62 374 -29 415 -56
25 -164 16 -237 -20 -57 -28 -132 -97 -171 -158 -13 -22 -27 -37 -30 -34 -2 3
2 41 11 84 28 139 39 282 24 325 -16 45 -88 58 -176 33z"/>
<path fill="#1c2d3d" d="M185 1076 c-58 -19 -165 -75 -165 -87 0 -5 15 -32 34 -60 30 -45 33
-55 25 -84 -14 -49 -57 -255 -66 -312 -27 -177 17 -255 143 -255 47 0 136 31
150 53 2 4 -4 21 -13 40 -33 66 -24 157 46 471 38 168 38 192 6 223 -19 20
-34 25 -72 24 -26 0 -66 -6 -88 -13z"/>
<path fill="#1c2d3d" d="M510 1076 c-52 -14 -118 -44 -126 -58 -3 -5 8 -31 26 -58 l31 -48
-25 -119 c-43 -204 -62 -354 -52 -404 8 -45 40 -87 75 -101 46 -17 118 -11
164 14 36 21 42 28 39 53 -12 129 -9 183 12 250 30 94 67 155 130 213 63 57
115 77 145 55 29 -20 27 -46 -15 -214 -44 -172 -50 -277 -20 -322 50 -74 179
-79 258 -10 14 13 15 19 3 46 -20 48 -11 173 24 327 58 262 49 341 -46 379
-51 21 -158 10 -226 -23 -57 -28 -143 -108 -180 -166 -24 -38 -29 -35 -17 11
26 98 17 150 -31 174 -34 18 -107 18 -169 1z"/>
<path fill="#1c2d3d" d="M1560 1074 c-218 -59 -352 -236 -344 -456 6 -184 98 -293 243 -290
69 2 149 39 194 93 19 21 36 39 39 39 3 0 2 -18 -3 -41 -46 -205 -244 -289
-381 -162 l-26 25 -16 -23 c-22 -35 -40 -111 -32 -142 3 -14 18 -38 32 -52 42
-43 90 -57 189 -58 192 -1 328 96 439 313 44 86 89 212 100 284 4 21 8 41 10
45 2 3 7 35 11 71 4 36 9 74 11 85 2 11 5 62 6 113 1 82 -1 96 -19 114 -29 28
-96 32 -150 8 -24 -10 -44 -15 -44 -9 -1 5 -2 17 -2 27 -1 9 -5 20 -10 23 -18
13 -193 8 -247 -7z m215 -126 c-2 -7 -6 -33 -9 -58 -4 -41 -34 -233 -41 -270
-2 -8 -4 -18 -4 -22 -1 -5 -20 -21 -43 -38 -106 -77 -223 -4 -213 133 9 123
83 213 210 253 54 17 106 18 100 2z"/>
<path fill="#1c2d3d" d="M2405 1080 c-187 -44 -327 -177 -365 -345 -15 -66 -14 -174 1 -227
34 -115 134 -202 259 -223 209 -35 409 51 433 186 11 60 -33 95 -130 105 -58
6 -58 6 -61 -21 -7 -91 -100 -147 -171 -104 -35 21 -56 58 -66 117 l-7 42 34
0 c113 1 253 34 317 74 82 52 120 108 128 190 10 98 -48 180 -145 206 -45 12
-176 12 -227 0z m153 -168 c14 -19 15 -33 3 -64 -20 -53 -74 -93 -153 -114
-79 -21 -97 -19 -90 9 9 35 79 140 108 161 52 37 106 41 132 8z"/>
<path fill="#1c2d3d" d="M2935 1083 c-43 -9 -155 -57 -155 -66 0 -6 13 -31 30 -57 l30 -46
-30 -150 c-58 -292 -61 -384 -18 -439 50 -63 176 -63 249 2 15 12 15 18 2 56
-28 81 0 237 62 342 33 56 123 138 168 152 45 13 77 -5 77 -44 0 -14 -17 -91
-37 -172 -48 -191 -51 -281 -10 -334 20 -27 38 -38 70 -44 56 -12 123 1 163
32 32 25 33 26 19 58 -14 33 -14 160 0 217 3 14 8 36 11 50 2 14 14 66 25 115
25 108 29 217 10 263 -32 77 -176 96 -293 39 -58 -29 -136 -99 -176 -160 -29
-44 -35 -43 -22 4 25 94 15 151 -31 174 -26 14 -98 18 -144 8z"/>
<path fill="#1c2d3d" d="M3814 1076 c-32 -10 -161 -70 -172 -80 -1 -2 15 -27 36 -57 l38 -54
-18 -75 c-9 -41 -19 -90 -22 -107 -3 -18 -10 -52 -15 -75 -31 -138 -33 -251
-5 -293 39 -59 142 -75 227 -35 26 12 49 26 52 30 3 4 -2 21 -10 37 -19 37
-24 121 -13 188 10 57 38 203 44 225 15 58 43 210 44 233 0 17 -10 38 -25 52
-28 29 -91 33 -161 11z"/>
<path fill="#1c2d3d" d="M4305 1071 c-73 -21 -97 -33 -153 -79 -61 -49 -87 -78 -116 -132 -55
-100 -72 -249 -42 -352 41 -142 171 -229 344 -230 267 -1 468 217 458 496 -5
137 -62 207 -174 214 -38 3 -62 9 -61 16 4 30 -3 56 -17 71 -22 21 -155 19
-239 -4z m208 -119 c-22 -14 -53 -96 -53 -142 0 -70 18 -118 61 -165 l40 -43
-16 -39 c-32 -75 -98 -123 -170 -123 -112 0 -168 188 -100 337 31 68 65 107
119 135 62 32 156 63 119 40z"/>
<path fill="#1c2d3d" d="M4960 1082 c-8 -2 -41 -16 -73 -30 -48 -21 -55 -27 -45 -39 15 -18
20 -132 8 -193 -30 -157 -47 -296 -44 -357 6 -129 69 -185 209 -185 107 0 214
48 272 122 9 12 13 7 22 -27 19 -68 55 -93 140 -94 48 -1 113 20 143 48 17 16
17 17 1 36 -24 26 -23 193 1 292 38 156 66 302 66 346 0 40 -4 51 -27 69 -24
19 -37 22 -98 17 -71 -4 -161 -37 -210 -75 l-23 -18 39 -52 40 -52 -20 -82
c-11 -46 -27 -121 -36 -168 -18 -90 -33 -123 -74 -155 -42 -35 -65 -44 -103
-45 -29 0 -42 7 -63 32 -23 27 -26 38 -21 77 9 75 23 150 46 251 11 52 23 127
27 167 5 68 4 73 -21 98 -23 23 -33 26 -84 24 -31 -1 -64 -4 -72 -7z"/>
<path fill="#1c2d3d" d="M5928 1074 c-171 -40 -256 -133 -249 -273 6 -118 86 -197 240 -232
74 -17 75 -17 103 -18 25 -1 26 -3 17 -30 -32 -91 -192 -86 -310 8 l-38 31
-20 -26 c-52 -66 -51 -158 2 -198 101 -75 376 -80 526 -9 47 23 115 91 129
131 18 51 9 143 -18 187 -40 65 -159 123 -287 141 -86 11 -88 14 -55 60 16 22
43 46 60 53 29 12 32 11 74 -32 35 -37 52 -46 90 -52 63 -9 92 -1 135 39 31
28 36 38 36 80 0 98 -103 155 -280 154 -54 0 -124 -6 -155 -14z"/>
<path fill="#ef4b23" d="M7410 1084 c-8 -3 -43 -17 -77 -30 l-61 -26 14 -33 c20 -48 18 -103
-12 -272 -41 -239 -39 -310 8 -378 60 -90 257 -91 380 -3 24 17 49 40 57 51
11 15 15 16 22 6 5 -8 9 -23 9 -35 0 -24 45 -69 78 -79 61 -18 160 2 203 41
16 15 16 18 -3 50 -18 31 -20 46 -15 122 3 48 22 159 43 247 20 88 39 192 41
231 5 69 4 72 -23 93 -26 20 -37 23 -100 19 -71 -5 -158 -36 -209 -76 l-23
-18 39 -52 39 -51 -35 -163 c-19 -90 -43 -176 -52 -193 -31 -54 -91 -94 -143
-94 -41 0 -65 16 -79 53 -13 33 -9 67 34 287 43 215 44 251 10 284 -20 21 -34
25 -77 24 -29 0 -60 -3 -68 -5z"/>
<path fill="#ef4b23" d="M8435 1071 c-169 -47 -300 -178 -335 -337 -14 -60 -11 -195 4 -237
42 -116 133 -191 256 -212 168 -29 337 23 410 125 22 31 31 95 16 119 -13 21
-62 40 -123 46 l-60 7 -6 -42 c-8 -61 -45 -97 -106 -104 -62 -7 -116 53 -128
142 -5 32 -4 32 39 33 40 1 55 2 133 14 97 14 173 48 228 101 53 52 70 89 73
158 4 100 -48 170 -144 196 -58 15 -184 11 -257 -9z m181 -158 c7 -10 14 -27
14 -38 0 -35 -48 -93 -100 -120 -28 -14 -148 -40 -155 -33 -9 9 53 124 85 156
57 60 125 75 156 35z"/>
<path fill="#ef4b23" d="M9148 1085 c-2 -2 -16 -5 -33 -8 -56 -9 -90 -20 -127 -41 -93 -53
-139 -123 -139 -214 -1 -142 80 -219 270 -259 110 -22 104 -18 87 -51 -42 -81
-186 -74 -303 15 -25 19 -46 33 -48 31 -2 -2 -15 -25 -29 -52 -78 -147 25
-229 289 -227 96 0 108 2 193 26 149 44 227 158 193 285 -7 24 -23 59 -36 76
-32 42 -125 88 -222 109 -43 10 -91 21 -106 24 l-28 6 29 41 c16 22 44 47 61
54 31 13 33 12 63 -25 55 -65 127 -82 203 -45 47 23 65 49 67 100 5 103 -103
162 -289 159 -51 -1 -94 -3 -95 -4z"/>
</g>
</svg>
