<svg xmlns="http://www.w3.org/2000/svg" xmlns:xlink="http://www.w3.org/1999/xlink" width="1366" height="461" viewBox="0 0 1366 461">
  <defs>
    <clipPath id="clip-desktop-full-stack-designer-svg_1">
      <rect width="1366" height="461"/>
    </clipPath>
  </defs>
  <g id="desktop-full-stack-designer-svg_1" data-name="desktop-full-stack-designer-svg – 1" clip-path="url(#clip-desktop-full-stack-designer-svg_1)">
    <rect id="Rectangle_49" data-name="Rectangle 49" width="1250" height="2" transform="translate(69 296)" fill="#fff"/>
    <rect id="Rectangle_51" data-name="Rectangle 51" width="2" height="80" transform="translate(69 216)" fill="#fff"/>
    <g id="Ellipse_1" data-name="Ellipse 1" transform="translate(62 200)" fill="none" stroke="#fff" stroke-width="2">
      <circle cx="8.5" cy="8.5" r="8.5" stroke="none"/>
      <circle cx="8.5" cy="8.5" r="7.5" fill="none"/>
    </g>
    <text id="Branding" transform="translate(71 141)" fill="#fff" font-size="18" font-family="Roboto-Regular, Roboto"><tspan x="-35.609" y="0">Branding</tspan></text>
    <text id="Logo_design_Brand_identity_etc." data-name="Logo design, 
Brand identity, etc." transform="translate(71 166)" fill="#cccbe8" font-size="14" font-family="Roboto-Italic, Roboto" font-style="italic" letter-spacing="-0.02em"><tspan x="-38.799" y="0">Logo design, </tspan><tspan x="-53.282" y="17">Brand identity, etc.</tspan></text>
    <text id="UX" transform="translate(217 141)" fill="#fff" font-size="18" font-family="Roboto-Regular, Roboto"><tspan x="0" y="0">UX</tspan></text>
    <text id="Research_Use_cases_Personas_Usability_Wireframing_" data-name="Research, Use cases, Personas,
Usability, Wireframing, " transform="translate(228 166)" fill="#cccbe8" font-size="14" font-family="Roboto-Italic, Roboto" font-style="italic" letter-spacing="-0.02em"><tspan x="-91.889" y="0">Research, Use cases, Personas,</tspan><tspan x="-65.912" y="17">Usability, Wireframing, </tspan></text>
    <text id="UI" transform="translate(406 141)" fill="#fff" font-size="18" font-family="Roboto-Regular, Roboto"><tspan x="0" y="0">UI</tspan></text>
    <text id="Visual_Design_Mockups_UI_Elements_Prototype_etc." data-name="Visual Design, Mockups,
UI Elements, Prototype etc." transform="translate(414 166)" fill="#cccbe8" font-size="14" font-family="Roboto-Italic, Roboto" font-style="italic" letter-spacing="-0.02em"><tspan x="-70.892" y="0">Visual Design, Mockups,</tspan><tspan x="-78.422" y="17">UI Elements, Prototype etc.</tspan></text>
    <text id="Interaction_Design" data-name="Interaction Design" transform="translate(515 141)" fill="#fff" font-size="18" font-family="Roboto-Regular, Roboto"><tspan x="0" y="0">Interaction Design</tspan></text>
    <text id="Human-machine_interaction_Typography_Iconography" data-name="Human-machine interaction,
Typography, Iconography" transform="translate(587 166)" fill="#cccbe8" font-size="14" font-family="Roboto-Italic, Roboto" font-style="italic" letter-spacing="-0.02em"><tspan x="-82.281" y="0">Human-machine interaction,</tspan><tspan x="-72.806" y="17">Typography, Iconography</tspan></text>
    <text id="Front-End_Dev" data-name="Front-End Dev" transform="translate(703 141)" fill="#fff" font-size="18" font-family="Roboto-Regular, Roboto"><tspan x="0" y="0">Front-End Dev</tspan></text>
    <text id="HTML_CSS_jQuery_JS_Bootstrap_4_etc." data-name="HTML, CSS, jQuery, JS, 
Bootstrap 4+, etc." transform="translate(758 166)" fill="#cccbe8" font-size="14" font-family="Roboto-Italic, Roboto" font-style="italic" letter-spacing="-0.02em"><tspan x="-67.224" y="0">HTML, CSS, jQuery, JS, </tspan><tspan x="-51.327" y="17">Bootstrap 4+, etc.</tspan></text>
    <text id="Graphics_Print" data-name="Graphics / Print" transform="translate(1271 141)" fill="#fff" font-size="18" font-family="Roboto-Regular, Roboto"><tspan x="-62.416" y="0">Graphics / Print</tspan></text>
    <text id="Business_Cards_Flyers_Brochures_etc." data-name="Business Cards, Flyers, 
Brochures, etc." transform="translate(1271 166)" fill="#cccbe8" font-size="14" font-family="Roboto-Italic, Roboto" font-style="italic" letter-spacing="-0.02em"><tspan x="-68.407" y="0">Business Cards, Flyers, </tspan><tspan x="-43.417" y="17">Brochures, etc.</tspan></text>
    <text id="Marketing" transform="translate(884 141)" fill="#fff" font-size="18" font-family="Roboto-Regular, Roboto"><tspan x="0" y="0">Marketing</tspan></text>
    <text id="Video_Banner_gif_svg_infographics" data-name="Video, Banner, gif,
svg, infographics" transform="translate(924 166)" fill="#cccbe8" font-size="14" font-family="Roboto-Italic, Roboto" font-style="italic" letter-spacing="-0.02em"><tspan x="-51.46" y="0">Video, Banner, gif,</tspan><tspan x="-49.453" y="17">svg, infographics</tspan></text>
    <text id="Motion_Design" data-name="Motion Design" transform="translate(1045 141)" fill="#fff" font-size="18" font-family="Roboto-Regular, Roboto"><tspan x="0" y="0">Motion Design</tspan></text>
    <text id="_3d_Visualization_Animation_Modeling" data-name="3d Visualization, Animation 
&amp; Modeling" transform="translate(1103 166)" fill="#cccbe8" font-size="14" font-family="Roboto-Italic, Roboto" font-style="italic" letter-spacing="-0.02em"><tspan x="-80.897" y="0">3d Visualization, Animation </tspan><tspan x="-33.06" y="17">&amp; Modeling</tspan></text>
    <rect id="Rectangle_52" data-name="Rectangle 52" width="2" height="80" transform="translate(227 216)" fill="#fff"/>
    <g id="Ellipse_2" data-name="Ellipse 2" transform="translate(220 200)" fill="none" stroke="#fff" stroke-width="2">
      <circle cx="8.5" cy="8.5" r="8.5" stroke="none"/>
      <circle cx="8.5" cy="8.5" r="7.5" fill="none"/>
    </g>
    <rect id="Rectangle_53" data-name="Rectangle 53" width="2" height="80" transform="translate(413 216)" fill="#fff"/>
    <g id="Ellipse_3" data-name="Ellipse 3" transform="translate(406 200)" fill="none" stroke="#fff" stroke-width="2">
      <circle cx="8.5" cy="8.5" r="8.5" stroke="none"/>
      <circle cx="8.5" cy="8.5" r="7.5" fill="none"/>
    </g>
    <rect id="Rectangle_54" data-name="Rectangle 54" width="2" height="80" transform="translate(585 216)" fill="#fff"/>
    <g id="Ellipse_4" data-name="Ellipse 4" transform="translate(578 200)" fill="none" stroke="#fff" stroke-width="2">
      <circle cx="8.5" cy="8.5" r="8.5" stroke="none"/>
      <circle cx="8.5" cy="8.5" r="7.5" fill="none"/>
    </g>
    <rect id="Rectangle_55" data-name="Rectangle 55" width="2" height="80" transform="translate(757 216)" fill="#fff"/>
    <g id="Ellipse_5" data-name="Ellipse 5" transform="translate(750 200)" fill="none" stroke="#fff" stroke-width="2">
      <circle cx="8.5" cy="8.5" r="8.5" stroke="none"/>
      <circle cx="8.5" cy="8.5" r="7.5" fill="none"/>
    </g>
    <rect id="Rectangle_56" data-name="Rectangle 56" width="2" height="80" transform="translate(1269 216)" fill="#fff"/>
    <g id="Ellipse_6" data-name="Ellipse 6" transform="translate(1262 200)" fill="none" stroke="#fff" stroke-width="2">
      <circle cx="8.5" cy="8.5" r="8.5" stroke="none"/>
      <circle cx="8.5" cy="8.5" r="7.5" fill="none"/>
    </g>
    <rect id="Rectangle_57" data-name="Rectangle 57" width="2" height="80" transform="translate(929 216)" fill="#fff"/>
    <g id="Ellipse_7" data-name="Ellipse 7" transform="translate(922 200)" fill="none" stroke="#fff" stroke-width="2">
      <circle cx="8.5" cy="8.5" r="8.5" stroke="none"/>
      <circle cx="8.5" cy="8.5" r="7.5" fill="none"/>
    </g>
    <rect id="Rectangle_58" data-name="Rectangle 58" width="2" height="80" transform="translate(1101 216)" fill="#fff"/>
    <g id="Ellipse_8" data-name="Ellipse 8" transform="translate(1094 200)" fill="none" stroke="#fff" stroke-width="2">
      <circle cx="8.5" cy="8.5" r="8.5" stroke="none"/>
      <circle cx="8.5" cy="8.5" r="7.5" fill="none"/>
    </g>
    <text id="Full-stack_Designer" data-name="Full-stack Designer" transform="translate(509 349.228)" fill="#fff" font-size="30" font-family="Roboto-Regular, Roboto"><tspan x="0" y="0">FULL-STACK DESIGNER</tspan></text>
    <g id="ferry-boat" transform="translate(1308.526 266.367)">
      <path id="Path_66" data-name="Path 66" d="M76.907,160.578h7.414v-13.4l-8.179,11.946A.927.927,0,0,0,76.907,160.578Z" transform="translate(-63.333 -138.089)" fill="#fff"/>
      <path id="Path_67" data-name="Path 67" d="M38.132,24.193H24.23v-1.7H33.5a.927.927,0,0,0,.927-.927A17.2,17.2,0,0,0,32.737,13.9a16.673,16.673,0,0,0-8.506-7.87V.927a.927.927,0,0,0-1.27-.861l-.009,0L17.391,2.356a.927.927,0,0,0-.008,1.711l4.994,2.109V24.193H9.4a.934.934,0,0,0-.915,1.1l.846,5.549a.927.927,0,0,0,.916.788H30.966a8.3,8.3,0,0,0,7.42-4.53H38.4a8.2,8.2,0,0,0,.633-1.743.936.936,0,0,0-.9-1.169ZM24.23,8.856a8.384,8.384,0,0,1,0,10.526Z" transform="translate(0 0)" fill="#fff"/>
    </g>
  </g>
</svg>
