<svg xmlns="http://www.w3.org/2000/svg" width="100%" height="auto" viewBox="0 0 1000 150">
  <metadata><?xpacket begin="﻿" id="W5M0MpCehiHzreSzNTczkc9d"?>
<x:xmpmeta xmlns:x="adobe:ns:meta/" x:xmptk="Adobe XMP Core 5.6-c138 79.159824, 2016/09/14-01:09:01">
   <rdf:RDF xmlns:rdf="http://www.w3.org/1999/02/22-rdf-syntax-ns#">
      <rdf:Description rdf:about=""/>
   </rdf:RDF>
</x:xmpmeta>  
<?xpacket end="w"?></metadata>
  <defs>
    <style>
      .cls-1 {
        fill: #fff;
        fill-rule: evenodd;
      }
    </style>
  </defs>
  <path id="hues" class="cls-1" d="M704.55,59.62l-1.3-.65a142.984,142.984,0,0,0,3.38-16.25,126.243,126.243,0,0,0,1.82-20.41q0-4.939-2.21-7.085T698.7,13.08q-9.36,0-25.61,9.49l7.28,10.4q-0.653,3.12-5.07,28.99-5.2,29.381-5.2,39,0,16.122,14.95,16.12,7.67,0,14.56-6.37-2.73-3.768-2.73-12.285a48.879,48.879,0,0,1,2.99-16.77,47.1,47.1,0,0,1,7.345-13.65,42.678,42.678,0,0,1,9.035-8.58q4.68-3.184,8.32-3.185,4.417,0,4.42,5.85,0,4.29-3.9,18.59t-3.9,20.28q0,16.122,14.95,16.12,7.67,0,14.56-6.37-2.73-3.768-2.73-11.96t3.835-24.31q3.833-16.118,3.835-22.88,0-15.728-15.73-15.73-21.45,0-35.36,23.79h0Zm92.494,53.885a29.037,29.037,0,0,0,11.895-9.815l1.3,0.65a12.477,12.477,0,0,0,3.51,9.23q3.51,3.51,11.5,3.51t15.275-6.37q-4.031-3.51-4.03-12.155t4.745-29.185q4.745-20.539,4.745-24.895t-2.535-6.5q-2.535-2.145-8.385-2.145-11.83,0-24.96,9.49l7.8,10.4q-5.331,22.751-7.15,33.28a23.118,23.118,0,0,1-7.41,9.035q-4.551,3.187-8.58,3.185a8.665,8.665,0,0,1-6.5-2.535,9.539,9.539,0,0,1-2.47-6.955q0-4.418,3.965-23.2t3.965-23.595q0-4.808-2.405-6.955t-7.735-2.145q-8.321,0-20.41,6.37,2.73,3.772,2.73,10.4t-2.86,21.45q-2.86,14.82-2.86,23.335t4.55,14.1q4.55,5.588,15.99,5.59A37.877,37.877,0,0,0,797.044,113.505Zm111.344-3.12q9.36-6.693,9.36-14.365,0-8.97-18.98-8.97,0,7.672-3.705,11.05a12.579,12.579,0,0,1-8.775,3.38q-5.07,0-8.45-4.745t-3.77-13.065q24.57-.128,36.335-8.125T922.168,55.46a17.9,17.9,0,0,0-6.24-14.235q-6.24-5.393-18.33-5.4-21.711,0-36.075,13.065T847.158,82.89q0,15.731,9.685,24.96t27.5,9.23Q899.027,117.08,908.388,110.385ZM899.743,52.73a5.941,5.941,0,0,1,1.625,4.29q0,5.46-6.565,10.335T875.238,73.27a41.02,41.02,0,0,1,7.995-15.6q5.525-6.63,12.155-6.63A5.766,5.766,0,0,1,899.743,52.73Zm72.41,8.32a16.88,16.88,0,0,0,9.36,2.73A15.148,15.148,0,0,0,991,60.4q4.354-3.379,4.355-9.62t-7.475-10.595q-7.477-4.354-18.98-4.355a77.585,77.585,0,0,0-20.67,2.535,33.245,33.245,0,0,0-15.34,8.905A21.723,21.723,0,0,0,926.718,63q0,11.831,8.84,18.33t28.6,8.84q-2.212,9.491-13,9.49a28.744,28.744,0,0,1-12.805-3.25,25.734,25.734,0,0,1-9.815-7.8q-6.37,7.151-6.37,14.3,0,14.172,32.89,14.17a60,60,0,0,0,23.53-5.07,25.844,25.844,0,0,0,10.14-8,19.846,19.846,0,0,0,4.03-12.415q0-11.31-8.97-17.42t-30.94-9.36a23.239,23.239,0,0,1,5.07-7.6,19.016,19.016,0,0,1,7.67-4.1A17.859,17.859,0,0,0,972.153,61.05Z"/>
  <path id="ingenious" class="cls-1" d="M40.305,7.62q-3.836-2.6-10.075-2.6A22.5,22.5,0,0,0,18.4,8.4q-5.591,3.382-5.59,9.36a8.075,8.075,0,0,0,3.835,7.02q3.833,2.6,10.465,2.6a20.377,20.377,0,0,0,11.83-3.575q5.2-3.574,5.2-8.58A8.613,8.613,0,0,0,40.305,7.62ZM34.26,110.71q-4.031-3.51-4.03-12.48t4.81-29.9Q39.848,47.4,39.85,45.45q0-5.07-2.21-7.345T30.1,35.83q-9.36,0-25.61,9.75L11.77,56.5Q3.449,92.511,3.45,100.765T7.09,113.05q3.638,4.028,11.765,4.03t15.4-6.37h0Zm38.088,0q-2.73-3.768-2.73-12.285a48.886,48.886,0,0,1,2.99-16.77,47.1,47.1,0,0,1,7.345-13.65,42.668,42.668,0,0,1,9.035-8.58q4.68-3.184,8.32-3.185,4.417,0,4.42,5.85,0,4.29-3.9,18.59t-3.9,20.28q0,16.122,14.95,16.12,7.669,0,14.56-6.37-2.73-3.768-2.73-11.96t3.835-24.31q3.832-16.118,3.835-22.88,0-15.728-15.73-15.73-21.45,0-35.36,23.79l-1.3-.65a32.631,32.631,0,0,0,2.99-13.26q0-9.878-10.92-9.88t-23.79,7.28l6.76,10.4Q48.167,65.862,45.5,80.81t-2.665,21.58q0,6.63,3.64,10.66t11.31,4.03q7.669,0,14.56-6.37h0Zm91.845-53.56q8.643-8.449,23.2-8.45-3.51,24.96-5.72,36.53-5.85,7.02-13.26,7.02a11.867,11.867,0,0,1-9.165-4.1q-3.7-4.095-3.7-10.725A27.348,27.348,0,0,1,164.193,57.15Zm36.66,51.675a100.407,100.407,0,0,0,7.085-20.865q2.468-11.048,3.64-20.735a157.638,157.638,0,0,0,1.169-18.915q0-9.229-8.97-9.23a21.77,21.77,0,0,0-12.349,4.16,37.636,37.636,0,0,0-.91-6.37,66.3,66.3,0,0,0-12.74-1.04,50.854,50.854,0,0,0-15.86,2.73,44.534,44.534,0,0,0-30.94,42.51q0,14.04,6.24,22.49t17.16,8.45q14.429,0,23.66-13.52l1.3,0.65q-2.213,12.87-8.905,19.565t-14.5,6.7q-11.962,0-17.94-8.84-5.332,7.148-5.33,13.65t6.175,10.335q6.173,3.833,16.38,3.835a41.957,41.957,0,0,0,19.435-4.745,44.885,44.885,0,0,0,15.405-12.87A99.7,99.7,0,0,0,200.853,108.825Zm75.723,1.56q9.36-6.693,9.36-14.365,0-8.97-18.98-8.97,0,7.672-3.705,11.05a12.579,12.579,0,0,1-8.775,3.38q-5.07,0-8.45-4.745t-3.77-13.065q24.57-.128,36.335-8.125T290.356,55.46a17.9,17.9,0,0,0-6.24-14.235q-6.24-5.393-18.33-5.4-21.712,0-36.075,13.065T215.346,82.89q0,15.731,9.685,24.96t27.5,9.23Q267.216,117.08,276.576,110.385ZM267.931,52.73a5.941,5.941,0,0,1,1.625,4.29q0,5.46-6.565,10.335T243.426,73.27a40.992,40.992,0,0,1,8-15.6q5.525-6.63,12.155-6.63A5.768,5.768,0,0,1,267.931,52.73Zm53.885,57.98q-2.73-3.768-2.73-12.285a48.879,48.879,0,0,1,2.99-16.77,47.075,47.075,0,0,1,7.345-13.65,42.654,42.654,0,0,1,9.035-8.58q4.68-3.184,8.32-3.185,4.417,0,4.42,5.85,0,4.29-3.9,18.59t-3.9,20.28q0,16.122,14.95,16.12,7.668,0,14.56-6.37-2.73-3.768-2.73-11.96t3.835-24.31q3.832-16.118,3.835-22.88,0-15.728-15.73-15.73-21.45,0-35.36,23.79l-1.3-.65a32.641,32.641,0,0,0,2.99-13.26q0-9.878-10.92-9.88t-23.79,7.28l6.76,10.4q-2.862,12.352-5.525,27.3t-2.665,21.58q0,6.63,3.64,10.66t11.31,4.03q7.668,0,14.56-6.37h0ZM419.25,7.62q-3.836-2.6-10.075-2.6a22.5,22.5,0,0,0-11.83,3.38q-5.591,3.382-5.59,9.36a8.075,8.075,0,0,0,3.835,7.02q3.833,2.6,10.465,2.6a20.376,20.376,0,0,0,11.83-3.575q5.2-3.574,5.2-8.58A8.614,8.614,0,0,0,419.25,7.62Zm-6.045,103.09q-4.031-3.51-4.03-12.48t4.81-29.9q4.808-20.929,4.81-22.88,0-5.07-2.21-7.345t-7.54-2.275q-9.36,0-25.61,9.75l7.28,10.92q-8.32,36.011-8.32,44.265t3.64,12.285q3.637,4.028,11.765,4.03t15.4-6.37h0Zm65.908-64.09a33.325,33.325,0,0,0-1.56-9.75,43.069,43.069,0,0,0-9.36-1.04q-20.8,0-34.255,13.065T420.483,82.89q0,15.472,9.88,24.83t26.91,9.36a43.034,43.034,0,0,0,16.51-3.315,47.06,47.06,0,0,0,14.43-9.3,43.623,43.623,0,0,0,10.27-15.4,53.194,53.194,0,0,0,3.9-20.54q0-11.115-5.265-16.965a16.33,16.33,0,0,0-12.545-5.85,17.215,17.215,0,0,0-5.46.91h0Zm0,37.18q-5.46,17.291-18.72,17.29-5.98,0-9.815-5.655T446.743,80.42a33.635,33.635,0,0,1,5.59-18.2q6.5-10.268,23.66-13.91a15.472,15.472,0,0,0-5.655,7.28,23.071,23.071,0,0,0-1.755,8.19q0,13.522,10.53,20.02h0Zm64.025,29.7a29.037,29.037,0,0,0,11.895-9.815l1.3,0.65a12.477,12.477,0,0,0,3.51,9.23q3.51,3.51,11.5,3.51t15.275-6.37q-4.032-3.51-4.03-12.155t4.745-29.185q4.743-20.539,4.745-24.895t-2.535-6.5q-2.535-2.145-8.385-2.145-11.832,0-24.96,9.49l7.8,10.4q-5.333,22.751-7.15,33.28a23.135,23.135,0,0,1-7.41,9.035q-4.553,3.187-8.58,3.185a8.662,8.662,0,0,1-6.5-2.535,9.535,9.535,0,0,1-2.47-6.955q0-4.418,3.965-23.2t3.965-23.595q0-4.808-2.4-6.955t-7.735-2.145q-8.322,0-20.41,6.37Q512,45.972,512,52.6t-2.86,21.45q-2.862,14.82-2.86,23.335t4.55,14.1q4.548,5.588,15.99,5.59A37.881,37.881,0,0,0,543.138,113.505ZM642.587,61.05a16.88,16.88,0,0,0,9.36,2.73,15.15,15.15,0,0,0,9.49-3.38q4.353-3.379,4.355-9.62t-7.475-10.595q-7.477-4.354-18.98-4.355a77.585,77.585,0,0,0-20.67,2.535,33.245,33.245,0,0,0-15.34,8.905A21.719,21.719,0,0,0,597.152,63q0,11.831,8.84,18.33t28.6,8.84q-2.212,9.491-13,9.49a28.744,28.744,0,0,1-12.8-3.25,25.726,25.726,0,0,1-9.815-7.8q-6.372,7.151-6.37,14.3,0,14.172,32.89,14.17a60,60,0,0,0,23.53-5.07,25.858,25.858,0,0,0,10.14-8,19.846,19.846,0,0,0,4.03-12.415q0-11.31-8.97-17.42t-30.94-9.36a23.208,23.208,0,0,1,5.07-7.6,19.01,19.01,0,0,1,7.67-4.1A17.853,17.853,0,0,0,642.587,61.05Z"/>
</svg>
