<svg xmlns="http://www.w3.org/2000/svg" xmlns:xlink="http://www.w3.org/1999/xlink" width="420" height="1185" viewBox="0 0 420 1185">
  <defs>
    <clipPath id="clip-desktop-full-stack-designer-svg_2">
      <rect width="420" height="1185"/>
    </clipPath>
  </defs>
  <g id="desktop-full-stack-designer-svg_2" data-name="desktop-full-stack-designer-svg – 2" clip-path="url(#clip-desktop-full-stack-designer-svg_2)">
    <rect id="Rectangle_49" data-name="Rectangle 49" width="952.5" height="2" transform="translate(62.5 102.5) rotate(90)" fill="#fff"/>
    <g id="Group_48" data-name="Group 48" transform="translate(-32.5 38)">
      <text id="Branding" transform="translate(207 91)" fill="#fff" font-size="18" font-family="Roboto-Regular, Roboto"><tspan x="0" y="0">Branding</tspan></text>
      <text id="Logo_design_Brand_identity_etc." data-name="Logo design, 
Brand identity, etc." transform="translate(207 116)" fill="#cccbe8" font-size="14" font-family="Roboto-Italic, Roboto" font-style="italic" letter-spacing="-0.02em"><tspan x="0" y="0">Logo design, </tspan><tspan x="0" y="17">Brand identity, etc.</tspan></text>
    </g>
    <g id="Group_49" data-name="Group 49" transform="translate(-33)">
      <text id="UX" transform="translate(207 260)" fill="#fff" font-size="18" font-family="Roboto-Regular, Roboto"><tspan x="0" y="0">UX</tspan></text>
      <text id="Research_Use_cases_Personas_Usability_Wireframing_" data-name="Research, Use cases, Personas,
Usability, Wireframing, " transform="translate(207 285)" fill="#cccbe8" font-size="14" font-family="Roboto-Italic, Roboto" font-style="italic" letter-spacing="-0.02em"><tspan x="0" y="0">Research, Use cases, Personas,</tspan><tspan x="0" y="17">Usability, Wireframing, </tspan></text>
    </g>
    <g id="Group_50" data-name="Group 50" transform="translate(-33 -21)">
      <text id="UI" transform="translate(207 411)" fill="#fff" font-size="18" font-family="Roboto-Regular, Roboto"><tspan x="0" y="0">UI</tspan></text>
      <text id="Visual_Design_Mockups_UI_Elements_Prototype_etc." data-name="Visual Design, Mockups,
UI Elements, Prototype etc." transform="translate(207 436)" fill="#cccbe8" font-size="14" font-family="Roboto-Italic, Roboto" font-style="italic" letter-spacing="-0.02em"><tspan x="0" y="0">Visual Design, Mockups,</tspan><tspan x="0" y="17">UI Elements, Prototype etc.</tspan></text>
    </g>
    <g id="Group_51" data-name="Group 51" transform="translate(-33 -85)">
      <text id="Interaction_Design" data-name="Interaction Design" transform="translate(207 605)" fill="#fff" font-size="18" font-family="Roboto-Regular, Roboto"><tspan x="0" y="0">Interaction Design</tspan></text>
      <text id="Human-machine_interaction_Typography_Iconography" data-name="Human-machine interaction,
Typography, Iconography" transform="translate(207 630)" fill="#cccbe8" font-size="14" font-family="Roboto-Italic, Roboto" font-style="italic" letter-spacing="-0.02em"><tspan x="0" y="0">Human-machine interaction,</tspan><tspan x="0" y="17">Typography, Iconography</tspan></text>
    </g>
    <g id="Group_52" data-name="Group 52" transform="translate(-33 -119)">
      <text id="Front-End_Dev" data-name="Front-End Dev" transform="translate(207 769)" fill="#fff" font-size="18" font-family="Roboto-Regular, Roboto"><tspan x="0" y="0">Front-End Dev</tspan></text>
      <text id="HTML_CSS_jQuery_JS_Bootstrap_4_etc." data-name="HTML, CSS, jQuery, JS, 
Bootstrap 4+, etc." transform="translate(207 794)" fill="#cccbe8" font-size="14" font-family="Roboto-Italic, Roboto" font-style="italic" letter-spacing="-0.02em"><tspan x="0" y="0">HTML, CSS, jQuery, JS, </tspan><tspan x="0" y="17">Bootstrap 4+, etc.</tspan></text>
    </g>
    <g id="Group_55" data-name="Group 55" transform="translate(-33 -251)">
      <text id="Graphics_Print" data-name="Graphics / Print" transform="translate(207 1291)" fill="#fff" font-size="18" font-family="Roboto-Regular, Roboto"><tspan x="0" y="0">Graphics / Print</tspan></text>
      <text id="Business_Cards_Flyers_Brochures_etc." data-name="Business Cards, Flyers, 
Brochures, etc." transform="translate(207 1316)" fill="#cccbe8" font-size="14" font-family="Roboto-Italic, Roboto" font-style="italic" letter-spacing="-0.02em"><tspan x="0" y="0">Business Cards, Flyers, </tspan><tspan x="0" y="17">Brochures, etc.</tspan></text>
    </g>
    <g id="Group_53" data-name="Group 53" transform="translate(-33 -168)">
      <text id="Marketing" transform="translate(207 948)" fill="#fff" font-size="18" font-family="Roboto-Regular, Roboto"><tspan x="0" y="0">Marketing</tspan></text>
      <text id="Video_Banner_gif_svg_infographics" data-name="Video, Banner, gif,
svg, infographics" transform="translate(207 973)" fill="#cccbe8" font-size="14" font-family="Roboto-Italic, Roboto" font-style="italic" letter-spacing="-0.02em"><tspan x="0" y="0">Video, Banner, gif,</tspan><tspan x="0" y="17">svg, infographics</tspan></text>
    </g>
    <g id="Group_54" data-name="Group 54" transform="translate(-33 -202)">
      <text id="Motion_Design" data-name="Motion Design" transform="translate(207 1112)" fill="#fff" font-size="18" font-family="Roboto-Regular, Roboto"><tspan x="0" y="0">Motion Design</tspan></text>
      <text id="_3d_Visualization_Animation_Modeling" data-name="3d Visualization, Animation 
&amp; Modeling" transform="translate(207 1137)" fill="#cccbe8" font-size="14" font-family="Roboto-Italic, Roboto" font-style="italic" letter-spacing="-0.02em"><tspan x="0" y="0">3d Visualization, Animation </tspan><tspan x="0" y="17">&amp; Modeling</tspan></text>
    </g>
    <g id="Group_59" data-name="Group 59" transform="translate(-22 28.5)">
      <rect id="Rectangle_54" data-name="Rectangle 54" width="2" height="80" transform="translate(164.5 504.5) rotate(90)" fill="#fff"/>
      <g id="Ellipse_4" data-name="Ellipse 4" transform="translate(180.5 497.5) rotate(90)" fill="none" stroke="#fff" stroke-width="2">
        <circle cx="8.5" cy="8.5" r="8.5" stroke="none"/>
        <circle cx="8.5" cy="8.5" r="7.5" fill="none"/>
      </g>
    </g>
    <g id="Group_60" data-name="Group 60" transform="translate(-22 17.5)">
      <rect id="Rectangle_55" data-name="Rectangle 55" width="2" height="80" transform="translate(164.5 645.5) rotate(90)" fill="#fff"/>
      <g id="Ellipse_5" data-name="Ellipse 5" transform="translate(180.5 638.5) rotate(90)" fill="none" stroke="#fff" stroke-width="2">
        <circle cx="8.5" cy="8.5" r="8.5" stroke="none"/>
        <circle cx="8.5" cy="8.5" r="7.5" fill="none"/>
      </g>
    </g>
    <g id="Group_63" data-name="Group 63" transform="translate(-22 0.5)">
      <rect id="Rectangle_56" data-name="Rectangle 56" width="2" height="80" transform="translate(164.5 1052.5) rotate(90)" fill="#fff"/>
      <g id="Ellipse_6" data-name="Ellipse 6" transform="translate(180.5 1045.5) rotate(90)" fill="none" stroke="#fff" stroke-width="2">
        <circle cx="8.5" cy="8.5" r="8.5" stroke="none"/>
        <circle cx="8.5" cy="8.5" r="7.5" fill="none"/>
      </g>
    </g>
    <g id="Group_61" data-name="Group 61" transform="translate(-22 13.5)">
      <rect id="Rectangle_57" data-name="Rectangle 57" width="2" height="80" transform="translate(164.5 779.5) rotate(90)" fill="#fff"/>
      <g id="Ellipse_7" data-name="Ellipse 7" transform="translate(180.5 772.5) rotate(90)" fill="none" stroke="#fff" stroke-width="2">
        <circle cx="8.5" cy="8.5" r="8.5" stroke="none"/>
        <circle cx="8.5" cy="8.5" r="7.5" fill="none"/>
      </g>
    </g>
    <g id="Group_62" data-name="Group 62" transform="translate(-22 1.5)">
      <rect id="Rectangle_58" data-name="Rectangle 58" width="2" height="80" transform="translate(164.5 921.5) rotate(90)" fill="#fff"/>
      <g id="Ellipse_8" data-name="Ellipse 8" transform="translate(180.5 914.5) rotate(90)" fill="none" stroke="#fff" stroke-width="2">
        <circle cx="8.5" cy="8.5" r="8.5" stroke="none"/>
        <circle cx="8.5" cy="8.5" r="7.5" fill="none"/>
      </g>
    </g>
    <text id="Full-stack_Designer" data-name="Full-stack Designer" transform="translate(43.5 842.728) rotate(-90)" fill="#fff" font-size="30" font-family="Roboto-Regular, Roboto"><tspan x="0" y="0">FULL-STACK DESIGNER</tspan></text>
    <g id="Group_58" data-name="Group 58" transform="translate(-22 31.5)">
      <g id="Ellipse_3" data-name="Ellipse 3" transform="translate(180.5 364.5) rotate(90)" fill="none" stroke="#fff" stroke-width="2">
        <circle cx="8.5" cy="8.5" r="8.5" stroke="none"/>
        <circle cx="8.5" cy="8.5" r="7.5" fill="none"/>
      </g>
      <rect id="Rectangle_53" data-name="Rectangle 53" width="2" height="80" transform="translate(164.5 371.5) rotate(90)" fill="#fff"/>
    </g>
    <g id="Group_57" data-name="Group 57" transform="translate(-22 36.5)">
      <g id="Ellipse_2" data-name="Ellipse 2" transform="translate(180.5 229.5) rotate(90)" fill="none" stroke="#fff" stroke-width="2">
        <circle cx="8.5" cy="8.5" r="8.5" stroke="none"/>
        <circle cx="8.5" cy="8.5" r="7.5" fill="none"/>
      </g>
      <rect id="Rectangle_52" data-name="Rectangle 52" width="2" height="80" transform="translate(164.5 236.5) rotate(90)" fill="#fff"/>
    </g>
    <g id="Group_56" data-name="Group 56" transform="translate(-22.5 40)">
      <g id="Ellipse_1" data-name="Ellipse 1" transform="translate(181 95.5) rotate(90)" fill="none" stroke="#fff" stroke-width="2">
        <circle cx="8.5" cy="8.5" r="8.5" stroke="none"/>
        <circle cx="8.5" cy="8.5" r="7.5" fill="none"/>
      </g>
      <rect id="Rectangle_51" data-name="Rectangle 51" width="2" height="80" transform="translate(165 102.5) rotate(90)" fill="#fff"/>
    </g>
    <g id="spring-swing-rocket" transform="translate(-36.312 65.924)">
      <path id="Path_22" data-name="Path 22" d="M240.949,483.4h2.044v1.942h-2.044Z" transform="translate(-144.147 -450.458)" fill="#fff"/>
      <path id="Path_23" data-name="Path 23" d="M185.754.089,185.66,0l-.095.089a21.993,21.993,0,0,0-5.045,7.1H190.8a21.994,21.994,0,0,0-5.045-7.1Z" transform="translate(-87.835)" fill="#fff"/>
      <path id="Path_24" data-name="Path 24" d="M86.262,268.862v9.016l5.327-1.674a23.963,23.963,0,0,1-2.683-9.029Z" transform="translate(0 -248.97)" fill="#fff"/>
      <path id="Path_25" data-name="Path 25" d="M232.439,204.963a1.855,1.855,0,1,0-1.855,1.855A1.857,1.857,0,0,0,232.439,204.963Z" transform="translate(-132.76 -189.268)" fill="#fff"/>
      <path id="Path_26" data-name="Path 26" d="M163.64,154.117a21.763,21.763,0,0,0,2.381-18.557H154.167a21.762,21.762,0,0,0,2.381,18.557h2.524v3h2.044v-3Zm-7.445-12.1a3.9,3.9,0,1,1,3.9,3.9A3.9,3.9,0,0,1,156.195,142.018Z" transform="translate(-62.269 -126.323)" fill="#fff"/>
      <path id="Path_27" data-name="Path 27" d="M188.282,437.9h2.044v2.748h-2.044Z" transform="translate(-95.068 -408.059)" fill="#fff"/>
      <path id="Path_28" data-name="Path 28" d="M350.136,267.175a23.965,23.965,0,0,1-2.683,9.029l5.327,1.674v-9.016Z" transform="translate(-243.393 -248.97)" fill="#fff"/>
      <path id="Path_29" data-name="Path 29" d="M293.615,437.9h2.044v2.748h-2.044Z" transform="translate(-193.224 -408.059)" fill="#fff"/>
    </g>
  </g>
</svg>
