<?xml version="1.0" standalone="no"?>
<!DOCTYPE svg PUBLIC "-//W3C//DTD SVG 20010904//EN"
 "http://www.w3.org/TR/2001/REC-SVG-20010904/DTD/svg10.dtd">
<svg version="1.0" xmlns="http://www.w3.org/2000/svg"
 width="100%" height="auto" viewBox="0 0 500.000000 560.000000"
 preserveAspectRatio="xMidYMid meet">
<metadata>
Created by potrace 1.15, written by Peter Selinger 2001-2017
</metadata>
<g transform="translate(0.000000,560.000000) scale(0.100000,-0.100000)"
fill="#3f51b5" stroke="none">
<path d="M0 2800 l0 -2800 2500 0 2500 0 0 525 0 525 -145 0 -145 0 0 -380 0
-380 -2210 0 -2210 0 0 2505 0 2505 2210 0 2210 0 0 -370 0 -370 145 0 145 0
0 520 0 520 -2500 0 -2500 0 0 -2800z"/>
<path d="M870 2800 l0 -1750 150 0 150 0 0 1491 0 1492 1006 -1492 1005 -1491
155 0 155 0 -12 22 c-125 239 -376 624 -1292 1981 l-1010 1497 -153 0 -154 0
0 -1750z"/>
<path d="M1531 4528 c108 -205 404 -659 1288 -1970 l1016 -1508 153 0 152 0 0
1750 0 1750 -150 0 -150 0 -2 -1485 -3 -1485 -1000 1482 -1001 1483 -157 3
-158 3 12 -23z"/>
</g>
</svg>
