<?xml version="1.0" standalone="no"?> <!DOCTYPE svg PUBLIC "-//W3C//DTD SVG 1.0//EN" "http://www.w3.org/TR/2001/REC-SVG-20010904/DTD/svg10.dtd" > <svg xmlns="http://www.w3.org/2000/svg" width="100%" height="100%">
<defs >
<font id="mochamattari" horiz-adv-x="699" ><font-face
    font-family="Mocha Mattari"
    units-per-em="2048"
    panose-1="4 2 6 4 2 11 7 2 2 5"
    ascent="1843"
    descent="-614"
    alphabetic="0" />
<missing-glyph horiz-adv-x="1024" d="M887 324Q887 314 889 261T892 167T885 109Q883 104 883 95T884 75T885 63T885 59Q885 43 884 34T877 15T858 2Q836 -2 799 -2Q659 -2 602 0Q541 0 482 -1T403 -2Q366 -2 332 -1T295 0Q278 0 256 2T231 4Q214 5 203 4T185
2T176 0Q156 0 142 15T127 59V100V332Q128 391 127 511T127 694Q127 737 130 860T133 1073Q133 1100 130 1220T127 1364Q127 1366 127 1376T127 1390T128 1403T131 1416T138 1426T148 1434T164 1436Q175 1436 194 1438T223 1440Q301 1440 358 1438H483L572 1440H573Q584
1440 633 1439T748 1438Q760 1438 784 1439T821 1440Q857 1440 874 1427Q881 1423 885 1414T889 1400T890 1381L889 1368Q889 1293 885 1157Q884 1108 886 998T887 836Q886 775 886 690T886 493T887 324ZM780 512Q780 568 778 731T778 913Q780 953 780 1260Q780
1306 776 1318T754 1331Q751 1331 708 1330T655 1331Q640 1336 566 1333T473 1329Q468 1329 447 1331T420 1333Q405 1333 360 1337T289 1338T246 1317Q234 1305 231 1288T230 1241T231 1200V1024Q231 1013 231 987T230 937T231 891Q236 838 236 779T234 607T231
393Q231 377 232 280T233 147Q233 104 260 104Q284 104 316 107T365 111Q416 112 453 111T569 108T684 104Q749 104 765 119T778 190Q775 234 775 278T776 363T778 416Q778 420 779 456T780 512Z" />
<glyph unicode=" " glyph-name="space" horiz-adv-x="307" />
<glyph unicode="!" glyph-name="exclam" horiz-adv-x="389" d="M139 193Q144 193 170 196T209 199Q263 199 283 186T303 137Q303 131 303 118T303 98T303 78T302 58T298 41T293 25T284 13T272 5T256 2Q245 2 196 -5T127 -4Q114 -1 104 13T94 41Q94 53 92 75T90
116T94 150Q98 167 111 179T139 193ZM160 82Q160 74 174 74Q182 74 182 82Q182 92 170 92Q161 92 160 82ZM117 356Q117 392 110 456T102 553Q102 570 104 606T106 662Q106 674 104 737T100 887Q99 962 95 1068T90 1223T94 1391Q95 1408 107 1421T133 1436Q166 1438
201 1431T254 1423Q297 1423 297 1350Q297 1343 298 1232T297 1114Q297 1105 296 1090T295 1067Q295 1048 298 1012T301 956Q301 830 291 715Q291 712 286 685T281 635Q281 616 284 584T287 532Q287 510 284 454T281 373Q281 329 263 320T174 311Q117 311 117 356Z"
/>
<glyph unicode="&quot;" glyph-name="quotedbl" horiz-adv-x="665" d="M483 1374Q483 1364 496 1364Q506 1364 506 1374Q506 1380 492 1380Q483 1380 483 1374ZM115 1145Q115 1174 112 1210T109 1292Q109 1311 107 1339T104 1374Q104 1425 141 1430Q147 1430 172
1434T219 1438Q245 1438 265 1423T285 1380Q285 1356 275 1251T260 1096Q258 1049 186 1049Q147 1049 131 1069T115 1145ZM391 1116Q385 1165 375 1303Q367 1359 367 1372Q367 1427 410 1427Q417 1427 447 1430T506 1434Q553 1434 553 1374Q553 1296 545 1210T522
1085Q517 1071 507 1064T486 1055T459 1053Q398 1053 391 1116Z" />
<glyph unicode="#" glyph-name="numbersign" horiz-adv-x="839" d="M104 51Q104 75 111 118T121 180Q121 185 123 226T125 272Q125 291 139 377Q142 400 133 408T104 416Q71 416 58 427T49 477Q50 482 50 496T52 522T57 543Q68 571 88 571Q97 571 109 570T127
568T140 571T152 584T160 612Q169 652 173 695T179 793T184 879Q186 905 179 918T163 933T135 936Q98 936 98 979Q98 992 105 1023T113 1067Q113 1090 125 1096T174 1102Q197 1102 204 1118T219 1208Q229 1286 229 1290Q229 1297 232 1329T236 1372Q237 1405 249
1416T293 1432Q299 1432 311 1434T332 1436T350 1436T367 1432Q370 1430 377 1427T386 1422T393 1417T400 1411T404 1404T407 1394T406 1380Q402 1355 400 1330T392 1254T381 1147Q379 1127 388 1118T408 1107T443 1106Q450 1106 453 1106Q492 1106 513 1113T537
1143Q538 1146 539 1163T544 1216T553 1292Q561 1350 561 1362Q568 1411 593 1424T688 1438Q711 1438 722 1427T731 1397Q730 1387 729 1369T726 1340T719 1323Q709 1306 708 1295T711 1271T715 1247T702 1130Q701 1116 717 1114Q718 1114 745 1114Q761 1114 769
1113T785 1105T793 1083Q793 1065 791 1043T788 1014Q788 987 777 978T735 969Q678 969 672 920Q670 909 665 885T659 850Q659 826 656 783T653 719Q653 709 648 667T641 606Q641 583 648 578T682 573Q696 573 705 571T721 557T729 524Q729 496 721 440Q716 410
668 410Q652 410 639 402T623 379Q615 335 612 297Q606 197 598 111Q597 97 593 72T588 41Q585 8 549 8Q538 8 510 3T467 0H460Q454 1 452 2T444 5T436 10T430 18T426 31T426 49Q427 68 433 111T440 186Q440 194 445 228T451 272Q451 313 459 373Q461 386 456 394T434
405T405 409T365 410T328 409T309 398T297 367Q295 353 292 334T287 301T285 266Q285 211 266 66L262 35Q261 23 254 15T234 4T212 1T188 0Q133 0 119 8T104 51ZM330 641Q326 590 333 577T373 563Q382 563 401 565T428 567Q455 567 465 577T479 623L492 731Q495
760 499 814T506 897Q506 911 507 923T499 943T467 952Q458 952 439 949T410 946Q387 946 378 939T362 901Q362 898 357 865T350 817Q348 785 341 728T330 641Z" />
<glyph unicode="$" glyph-name="dollar" horiz-adv-x="811" d="M84 322Q84 338 87 363T90 406Q90 449 123 449Q144 449 174 452T223 455Q256 455 266 424T276 347T283 289Q296 252 331 231T410 209Q468 209 491 239T514 334Q514 357 510 379T493 426T471 467T439
511T406 552T367 596T328 639Q306 665 271 697T203 764T137 850Q84 933 84 1112Q84 1183 117 1251T205 1358Q218 1367 255 1386T309 1419Q313 1423 313 1450Q313 1489 322 1504T362 1520Q368 1520 397 1523T440 1526Q475 1526 485 1507T496 1457T504 1415Q508 1408
520 1402T554 1385T596 1358Q610 1347 643 1303Q651 1293 666 1281T691 1254T709 1208Q727 1134 727 1090Q727 1020 678 1020Q660 1020 633 1015T588 1010Q579 1010 572 1011T560 1015T551 1021T543 1029T538 1039T534 1049T532 1063T531 1076T529 1091T528 1106Q525
1155 498 1193T422 1231Q360 1231 327 1186T293 1077Q293 1001 327 948T432 834Q500 772 512 745Q546 682 629 602Q723 517 723 373Q723 308 715 274T678 172Q661 131 633 106Q606 84 562 61T504 20Q499 13 499 -26T479 -70Q463 -73 440 -73T386 -73T348 -72Q327
-72 320 -61T313 -27Q313 31 299 37Q226 61 176 104Q132 142 108 201T84 322ZM520 186Q520 173 529 164T555 154Q567 154 571 158T575 174Q575 203 545 203Q520 203 520 186ZM367 770Q367 762 379 762T391 770Q391 780 381 780Q367 780 367 770Z" />
<glyph unicode="%" glyph-name="percent" horiz-adv-x="1284" d="M780 182Q774 275 774 362Q774 386 777 470T780 580Q780 593 779 631T778 690Q778 777 832 837T971 897Q1006 897 1034 890T1084 873T1121 843T1147 807T1165 761T1176 711T1181 655T1183 598T1183
538T1182 479Q1182 443 1179 369T1176 258V162Q1176 91 1123 38T989 -16Q886 -16 836 39T780 182ZM899 203Q899 165 921 136T981 106Q996 106 1008 110T1028 123T1042 142T1051 167T1057 196T1060 228T1061 262T1061 296Q1061 307 1061 313Q1061 341 1059 395T1057
479Q1057 502 1058 550T1059 623Q1059 650 1058 666T1052 708T1038 748T1010 774T965 786Q937 786 917 765T897 717Q897 688 900 612T901 494Q899 455 899 358T899 203ZM385 0Q309 0 334 63L514 528Q626 831 633 848Q679 958 740 1130T831 1380Q844 1414 859 1424T915
1434Q972 1434 950 1382Q928 1326 896 1237T860 1139Q848 1107 826 1065T803 1020Q799 1009 794 984T784 946Q752 854 677 663T567 369Q526 247 442 37Q435 19 426 11T410 2T385 0ZM109 743Q109 793 106 902T102 1077Q102 1254 109 1276Q144 1450 309 1450Q396
1450 444 1399T504 1257Q507 1234 508 1188T509 1101T507 1017T506 967Q506 956 506 934T507 889T508 843T510 806V791Q510 744 504 704T480 621T427 555T340 530Q258 530 223 547Q169 572 139 627T109 743ZM223 1188Q223 1157 230 996T229 797Q220 653 313 653Q338
653 360 675T385 725Q390 765 386 837T385 954Q387 979 387 1001T387 1039T385 1066T382 1084L381 1090Q381 1096 382 1135T383 1207T381 1249Q366 1331 309 1331Q281 1331 263 1318T236 1282T226 1237T223 1188Z" />
<glyph unicode="&amp;" glyph-name="ampersand" horiz-adv-x="847" d="M106 1157Q107 1161 113 1180T124 1214T137 1248T154 1286T174 1319Q207 1367 272 1400T426 1434Q442 1434 478 1435T532 1436Q672 1436 672 1362Q672 1339 670 1325T666 1301T662 1286Q655
1245 612 1245Q538 1245 491 1243T406 1232T350 1212T319 1177T304 1127T301 1057Q301 972 336 906T436 840Q506 840 519 846Q526 849 530 854Q545 870 545 911Q545 916 545 918Q545 949 560 966T623 983Q634 983 659 992T702 1001Q738 1001 748 979T760 885Q760
860 769 848T789 836T810 825T819 793V686Q819 662 810 651T789 639T768 625T756 586Q751 527 754 367T756 143Q756 124 753 92T750 41Q750 27 739 14T711 0Q695 0 674 -5T635 -10Q609 -8 575 22T520 53Q509 53 499 48T474 31T455 16Q396 -16 330 -16Q258 -16 195
30T115 145Q90 257 90 385Q90 527 121 604Q130 629 168 674T207 743Q207 762 199 770Q113 852 96 985Q82 1087 106 1157ZM299 350Q299 274 334 218T442 162Q490 162 517 208T545 303Q545 309 544 332T543 365Q547 407 547 450T545 536T543 596Q543 603 543 608T541
617T538 624T533 629T526 632T518 634T508 635T495 635T479 635T461 635Q410 635 388 624T332 571Q326 563 321 555T313 534T307 513T303 489T301 465T300 437T299 410T299 380T299 350ZM571 338Q571 330 580 330Q590 330 590 336Q590 350 580 350Q571 350 571
338Z" />
<glyph unicode="&apos;" glyph-name="quotesingle" horiz-adv-x="368" d="M104 1139Q90 1262 90 1364Q90 1427 135 1427Q145 1427 176 1431T225 1434Q246 1431 260 1415T274 1380Q274 1335 250 1083Q245 1032 176 1032Q158 1032 145 1036T125 1046T114 1063T109
1084T107 1111T104 1139Z" />
<glyph unicode="(" glyph-name="parenleft" horiz-adv-x="514" d="M94 336Q94 367 100 430T106 522Q106 542 100 578T94 633Q94 654 102 694T111 754Q111 767 104 790T96 825Q94 873 93 919T91 1002T92 1071T94 1126T97 1166T99 1192L100 1202Q110 1248 116 1271T134
1323T162 1366T204 1398T268 1427Q319 1446 362 1446Q364 1446 369 1446Q395 1446 409 1445T442 1433T465 1401Q474 1353 465 1307Q460 1280 442 1268T403 1254T362 1248T327 1225T313 1167Q313 1156 311 1091T308 976T311 856Q316 794 311 623Q310 592 316 453T313
281Q308 225 358 180Q367 172 391 169T434 156T459 125Q469 78 465 37Q460 -16 397 -16Q355 -16 252 8Q206 18 173 54T123 141T101 239T94 336Z" />
<glyph unicode=")" glyph-name="parenright" horiz-adv-x="514" d="M207 297Q207 300 209 326T212 382T209 471Q207 495 207 526T208 632T209 784Q209 803 206 905T207 1022Q208 1030 210 1050T213 1089T215 1126Q215 1185 188 1235Q170 1268 90 1268Q70 1268
58 1289T45 1337Q45 1342 45 1355T45 1373T45 1388T47 1403T50 1415T55 1426T62 1433T73 1438T88 1440Q103 1440 135 1441T186 1442Q214 1442 242 1436T304 1412T363 1365T406 1285T424 1167V918Q424 909 419 871T414 797Q414 792 419 738T424 614V356Q424 227
387 135Q359 64 282 29T123 -6Q45 -6 41 43Q35 112 44 138T86 172Q95 174 110 176T134 181T153 187T170 197Q207 227 207 297Z" />
<glyph unicode="*" glyph-name="asterisk" horiz-adv-x="811" d="M131 778Q131 793 138 806T151 826T176 848T199 868Q250 918 270 944T297 993Q303 1011 292 1021T240 1044L180 1054Q120 1064 79 1080T35 1122Q32 1155 51 1189T100 1223Q130 1222 152 1214T216
1181T303 1137Q329 1123 340 1130T354 1165Q354 1176 338 1352Q335 1406 355 1424T438 1442Q467 1440 484 1417T496 1358L465 1171Q457 1148 463 1133T494 1122Q510 1125 552 1140T618 1167Q619 1167 642 1180T684 1202T727 1217Q753 1222 772 1180T791 1110Q790
1077 746 1061T650 1043T553 1029T508 991Q508 977 534 948T591 889T649 824T674 764Q673 729 629 704T557 688Q535 693 516 719Q491 762 467 818T428 897Q420 909 409 913T387 911Q353 887 319 788Q303 745 281 718T236 698Q131 723 131 778ZM702 1178Q702 1167
715 1167Q737 1164 740 1168Q741 1170 741 1174Q741 1192 727 1192Q702 1195 702 1178Z" />
<glyph unicode="+" glyph-name="plus" horiz-adv-x="811" d="M397 362Q377 362 371 362T353 365T339 372T333 388T329 415T328 455Q328 468 329 505T330 566T326 602Q324 612 322 618T314 629T305 636T290 639T270 640T242 640T207 639Q197 639 188 643T174 647Q171
647 161 645T143 643Q124 643 110 652T96 680Q96 692 91 715T88 766Q91 797 121 797Q187 797 219 801L274 799Q309 799 319 821T330 909Q330 922 333 945T336 979Q336 984 334 1006T332 1040Q332 1077 391 1077Q448 1077 464 1070T481 1030Q481 1012 480 969T479
909Q479 901 478 884T477 852T479 829Q487 793 537 793Q642 797 688 793Q743 786 743 745Q743 736 739 712T735 678Q735 658 725 648T700 637Q685 637 615 639T528 639Q490 636 481 616T471 532Q471 524 468 487T465 426Q465 388 458 379Q445 362 397 362Z" />
<glyph unicode="," glyph-name="comma" horiz-adv-x="380" d="M139 -162Q142 -144 154 -104T166 -43Q166 -25 155 -15T131 1T107 23T96 70Q96 85 97 108T98 133Q98 134 97 145T96 160Q96 179 108 192T137 207Q171 211 242 207Q263 206 275 189T287 152Q287 130
284 84T281 16Q281 -4 272 -29T247 -92T223 -152Q202 -208 164 -195Q136 -186 139 -162Z" />
<glyph unicode="-" glyph-name="hyphen" horiz-adv-x="552" d="M406 813Q465 813 469 776Q474 766 470 724T465 672Q465 650 453 638T424 625Q406 625 381 623T340 621Q314 621 265 620T178 618Q81 618 74 676Q68 722 74 768Q76 786 86 796T113 807Q143 807 200
806T285 805Q309 805 347 809T406 813Z" />
<glyph unicode="." glyph-name="period" horiz-adv-x="380" d="M285 182T285 168T287 124T289 80Q289 45 281 27T246 4Q209 1 200 1T169 3T141 6Q109 10 98 51Q94 67 93 83T93 125T94 158Q94 180 107 194T139 211Q156 212 188 210T233 207Q257 207 271 195Z" />
<glyph unicode="/" glyph-name="slash" horiz-adv-x="780" d="M80 -18Q60 -16 48 5T49 63Q56 83 90 179T133 299T168 397T208 505T243 591T283 684Q320 768 348 841T398 979T430 1067Q448 1113 492 1217T557 1378Q574 1423 597 1437T668 1452Q743 1452 743 1405Q743
1370 702 1264T618 1081Q603 1054 589 1018T559 936T504 778T414 532Q405 507 330 319T221 33Q214 14 198 0T162 -14Q154 -14 127 -17T80 -18Z" />
<glyph unicode="0" glyph-name="zero" horiz-adv-x="811" d="M291 1075Q283 906 291 848Q293 831 291 798T291 750Q297 728 293 646T291 532Q293 496 289 423T291 330Q303 253 328 222T406 190Q460 190 487 222T520 330Q526 389 523 510T522 692Q526 805 520 846Q512
870 516 960T520 1075Q519 1150 490 1183T406 1217Q364 1217 329 1182T291 1075ZM320 1450T399 1450T594 1401Q634 1384 663 1354T708 1291T733 1212T745 1130T748 1044Q748 1025 749 988T750 924T748 885Q745 871 747 792T748 700Q739 650 739 621Q739 616 740
599T744 534T748 410Q748 356 745 324T734 265T725 225Q725 224 724 213T720 195T712 172T695 137T668 92Q639 48 560 17T412 -14Q350 -14 302 12T221 41Q192 44 160 78T109 147Q92 178 83 221T73 293T72 375Q72 408 69 454T66 537T72 616Q85 713 72 752Q67 766
67 785T69 833T70 885Q70 893 68 930T66 987T67 1049T72 1135Q82 1230 98 1255Q100 1258 112 1285T131 1321Q171 1385 245 1417ZM573 410Q573 401 584 401Q592 401 592 410Q592 418 584 418Q573 418 573 410ZM618 631Q618 614 643 614Q662 614 662 629Q662 634
656 639T643 645Q618 645 618 631Z" />
<glyph unicode="1" glyph-name="one" horiz-adv-x="811" d="M403 307Q403 328 398 371T393 438Q393 556 401 784Q401 796 402 813T403 838Q403 863 402 912T401 985Q401 991 399 1013T397 1042Q394 1081 367 1090T240 1100Q233 1100 219 1100T199 1099T181 1100T164
1103T152 1110T142 1121T137 1137Q134 1159 138 1182T143 1217Q143 1262 227 1268Q278 1270 338 1286Q385 1299 402 1321T434 1389Q442 1415 462 1424T532 1434Q584 1434 599 1424T614 1368Q614 1356 607 1330T600 1290Q600 1280 607 1260T614 1225Q614 1197 612
1139T610 1047Q610 1010 612 946T614 844Q614 791 611 684T608 526Q608 488 609 414T610 303V205Q610 186 603 153T596 111Q596 100 598 83T600 57Q600 19 575 8T461 -4Q427 -4 412 10T397 55Q397 109 400 207T403 307ZM539 84Q539 76 542 73T555 70Q567 70 567
90Q567 104 555 104Q549 104 544 99T539 84Z" />
<glyph unicode="2" glyph-name="two" horiz-adv-x="811" d="M551 2Q506 -2 399 -2Q376 -2 332 1T261 4T186 0Q78 -16 78 63Q78 69 79 87T80 115Q80 127 79 153T78 193Q78 272 118 358T219 504Q222 507 246 530T280 565T308 596T336 635Q368 688 442 758Q468 781
485 821Q537 942 537 1032Q537 1064 536 1088T527 1144T506 1195T469 1229T410 1243Q382 1243 362 1236T336 1224T316 1200T299 1176Q294 1169 290 1161T283 1145T279 1126T276 1106T275 1082T274 1057T274 1029T274 999Q274 940 197 940Q194 940 189 940Q167 940
155 941T123 945T94 959T80 987Q69 1058 90 1196Q104 1283 158 1342T291 1417Q305 1420 342 1435T428 1450Q493 1450 584 1411Q634 1391 674 1347T729 1251Q758 1161 758 1042Q758 976 739 913T678 783T603 673T510 559Q507 556 482 536T449 506Q399 432 397 430Q390
423 365 395T336 360Q333 356 325 345T314 328T305 313T297 295T293 276T291 252Q291 207 304 194T377 180Q410 180 461 183T543 186Q553 186 586 182T635 178Q643 178 661 179T688 180Q703 180 713 166T723 135Q723 123 725 92T727 43Q724 -2 662 -2Q650 -2 612
1T551 2ZM387 1288Q387 1278 403 1278Q408 1278 409 1279T410 1288Q410 1294 409 1295T403 1296Q389 1296 387 1288Z" />
<glyph unicode="3" glyph-name="three" horiz-adv-x="811" d="M78 209Q76 219 71 238T63 274T59 305Q58 316 60 335T63 356Q65 381 67 395T81 423T113 442Q149 451 193 451Q221 451 236 436T254 406T260 360Q260 359 259 342T257 308T262 279Q292 176 393 176Q450
176 489 208T528 317Q528 341 532 384T536 464T528 535Q519 583 500 610T436 637Q422 637 394 641T350 645Q299 645 299 694Q299 709 302 738T305 788Q305 806 318 821T352 836Q412 836 444 848Q472 860 490 877T516 918T526 958T528 1001Q528 1025 531 1060T534
1119T524 1169Q512 1204 482 1228T406 1253Q311 1253 274 1171Q267 1153 267 1114T260 1049T221 1016Q214 1014 205 1014T177 1015T143 1016Q125 1016 113 1019T88 1031T70 1063T66 1120Q77 1278 168 1365T422 1452Q472 1452 504 1444T549 1424T579 1398T616 1374Q631
1368 644 1358T667 1338T685 1312T699 1287T710 1261T719 1239Q745 1186 745 1061Q745 1018 744 996T733 940T705 883Q697 873 695 855T680 821Q670 807 656 795T634 773T627 748Q627 730 635 719T661 692T692 655Q745 569 745 453Q745 440 744 382T743 317Q743
305 738 290T728 262T721 246Q718 233 714 204T705 160Q673 81 598 35T424 -12Q406 -12 305 2Q212 13 159 66T78 209ZM643 264Q643 254 653 254T664 255T666 264T653 272Q643 272 643 264ZM575 481Q575 475 590 475Q598 475 598 481Q598 492 590 492H578Q575 489
575 481Z" />
<glyph unicode="4" glyph-name="four" horiz-adv-x="811" d="M420 268Q373 271 243 266T72 272Q54 276 39 295T23 344Q23 432 35 471Q57 535 85 602T151 751T209 879Q214 890 223 908T239 942T252 977Q269 1031 311 1122T365 1241Q371 1257 386 1284T406 1321Q410
1331 416 1350T426 1380Q448 1438 498 1438Q510 1438 539 1439T590 1441T633 1436Q646 1433 655 1428T671 1414T680 1397T685 1375T686 1353T687 1328T686 1305Q686 1151 676 1024Q672 971 674 868T674 752Q672 730 673 714T677 640T680 520Q680 478 689 466T737
453Q781 453 778 410Q777 394 779 365T782 317Q782 281 735 281Q698 281 689 267T680 205Q678 185 678 164T679 114T680 68Q680 34 669 20T623 6Q612 6 593 0T563 -6Q471 -6 471 90V227Q472 248 461 257T420 268ZM252 494Q252 472 254 466T271 456T324 451Q338
451 372 452T424 453Q457 453 467 464T477 514Q477 520 474 548T471 618Q471 638 473 675T475 731Q475 753 473 803T471 877Q471 903 440 903Q414 903 395 852Q376 803 335 722T276 594Q252 528 252 494ZM152 641Q152 631 166 631Q172 631 172 641Q172 649 160
649Q152 649 152 641Z" />
<glyph unicode="5" glyph-name="five" horiz-adv-x="811" d="M406 -18Q324 -23 244 19T121 133Q82 195 82 365Q82 407 97 424T156 446Q186 449 208 449T244 437T258 399Q258 336 293 238Q313 172 408 172Q455 172 491 189T530 246Q534 288 541 303T549 326T545
351T539 373Q536 389 536 403T536 436T537 467Q537 496 538 553T539 637Q539 709 509 754T412 799Q360 799 321 765T276 692Q271 656 261 641T226 619T147 612Q94 612 86 659Q83 686 84 699T87 763T90 862Q90 871 97 904T104 969Q104 990 103 1033T102 1096Q102
1109 107 1172T113 1331Q113 1351 117 1367T130 1394T149 1413T176 1426T206 1434T242 1438T279 1439T319 1439T360 1438Q377 1438 405 1433T446 1427Q462 1427 492 1432T567 1438Q664 1438 689 1427T715 1366L716 1348Q716 1329 716 1321T713 1295T705 1267T690
1248T666 1237Q640 1233 535 1232T369 1225Q298 1218 309 1155Q314 1150 311 1108T307 1040Q307 1023 306 994Q303 943 312 937Q319 933 334 940Q336 941 350 949T375 962T405 973T447 983T498 987Q575 987 632 946T717 827Q743 760 750 700Q755 638 751 572T750
481Q763 367 743 289Q725 214 702 162T640 67T543 3T406 -18ZM674 725Q674 711 686 711Q690 711 694 714T698 721Q698 731 686 731T674 725Z" />
<glyph unicode="6" glyph-name="six" horiz-adv-x="811" d="M61 481Q61 507 54 562T47 639Q47 679 54 745T61 850Q61 864 59 919T59 993Q67 1123 70 1149Q75 1202 95 1252T151 1347T250 1420T391 1448Q496 1448 582 1398T725 1255Q756 1204 756 1108Q761 1038
705 1038Q687 1038 665 1033T629 1028Q606 1028 593 1033T572 1050T563 1072T558 1104T553 1139Q532 1241 426 1241Q396 1241 373 1234T335 1215T308 1185T292 1149T283 1106T280 1061T279 1014Q279 1007 278 995T276 971T279 948Q282 948 280 918L279 889Q277
847 286 838T324 848Q352 870 402 890T508 911Q629 911 693 835T760 631Q761 588 759 506T760 401Q767 303 741 233Q726 188 717 165T690 113T649 64T590 29Q491 -16 403 -16Q328 -16 290 -1T205 57Q194 67 165 84T123 121Q59 212 59 383Q59 401 60 434T61 481ZM272
348Q272 257 301 217T410 176Q419 176 428 177T443 180T457 185T469 190T480 198T490 205T501 214T512 223Q545 251 545 438Q545 448 545 480T546 528T544 575T537 623T522 664T498 699T462 720T412 729Q361 729 320 691T279 604Q279 558 276 459T272 348ZM623
1092Q623 1089 622 1082T622 1072T627 1069Q641 1069 641 1094Q641 1097 643 1103Q645 1112 637 1112Q623 1112 623 1092Z" />
<glyph unicode="7" glyph-name="seven" horiz-adv-x="811" d="M274 2Q246 2 233 16T219 66Q219 74 220 84T224 109T230 135T238 166T247 198T257 234T268 270T281 309T293 348Q297 359 305 384T319 427T326 461Q328 482 347 525T371 586Q384 639 403 704T426 788Q432
813 458 891T494 1024Q499 1053 507 1097T518 1151Q527 1196 509 1213T438 1227Q421 1225 332 1229T213 1231H131Q103 1231 88 1243T72 1290Q72 1299 67 1322T63 1366Q69 1403 84 1417T143 1434Q209 1438 246 1432Q270 1428 295 1427T333 1427T374 1430T410 1434Q468
1438 497 1435T552 1425T582 1419Q585 1419 599 1423T636 1432T684 1436Q760 1436 760 1374Q760 1363 761 1336T762 1289T758 1249Q754 1211 731 1128T700 1010Q689 956 658 857T616 709Q610 681 587 645T559 592Q551 567 552 535T547 473Q499 297 465 184Q462
172 453 123T432 49Q426 34 421 25T402 8T369 0Q351 0 320 1T274 2ZM506 612Q506 604 518 604T530 614Q530 616 526 618T518 621Q506 621 506 612Z" />
<glyph unicode="8" glyph-name="eight" horiz-adv-x="811" d="M160 764Q160 784 143 803T103 857T68 948Q53 1022 53 1137Q53 1231 108 1313T250 1413Q258 1415 279 1424T334 1441T414 1448Q563 1448 668 1343Q681 1332 687 1320T700 1287T709 1257Q754 1153 754
1102Q754 1097 754 1066T754 1026T753 990T748 948T738 912T723 874Q710 849 678 812T645 750Q645 728 675 690T713 637Q741 575 753 501T754 367Q748 340 744 293T731 210T705 139Q678 90 640 58T561 18Q548 16 500 0T406 -16Q286 -16 186 52T61 236Q49 290 49
502Q49 594 104 678Q109 685 125 701T150 733T160 764ZM266 297Q274 240 307 209T397 178Q456 178 495 211T539 307Q539 309 537 323T532 358T530 393Q530 400 531 433T532 486T526 534T508 586T473 625Q468 630 448 635T406 641Q347 641 307 591T266 453Q266 436
265 402T263 342T266 297ZM258 1096Q258 1088 258 1058T257 1012T259 970T268 927T285 895T313 872Q321 869 338 861T369 847T399 842Q434 842 460 852T501 885T525 928T538 985T542 1041T543 1100Q543 1108 543 1112Q543 1179 527 1217T457 1272Q396 1289 334
1253Q258 1206 258 1096ZM252 104Q246 82 264 82Q272 82 272 104Q272 125 266 125Q256 125 252 104Z" />
<glyph unicode="9" glyph-name="nine" horiz-adv-x="811" d="M135 111Q102 157 90 193T78 293Q78 329 94 347T154 365Q162 365 177 371T205 377Q269 377 272 281Q275 229 309 195Q315 190 321 187T338 182T352 180T370 179T387 180Q453 180 486 226T520 348Q520
362 524 398T529 459T524 522Q514 575 502 575Q491 575 474 564T439 539T382 514T295 502Q238 502 194 526T122 591T78 684T56 791T53 901Q57 990 53 1018Q51 1037 59 1126Q65 1178 80 1226T130 1321T213 1384Q235 1392 264 1409T323 1437T401 1448Q537 1448 619
1378T723 1204Q741 1069 741 1044Q741 1016 738 981T735 920Q735 910 741 852T745 758Q741 679 744 628T745 563Q741 519 741 432T741 322Q738 286 731 255T717 208T698 171T684 143Q656 83 621 54T520 0Q480 -16 416 -16Q287 -16 209 33Q195 41 183 51T164 70T149
92T135 111ZM279 788Q288 741 320 717T401 692Q445 692 481 719T520 784Q526 862 526 1038Q526 1075 525 1097T516 1147T497 1190T460 1216T401 1227Q337 1227 307 1192T276 1102Q276 1068 273 1002T270 885T279 788ZM698 852Q698 845 704 837T719 829Q726 829
725 845Q725 850 725 852Q725 889 711 889Q698 889 698 852Z" />
<glyph unicode=":" glyph-name="colon" horiz-adv-x="380" d="M94 135Q94 158 105 178T141 199Q178 199 196 199T234 194T260 183T273 162T280 128T281 78Q281 51 280 41T272 18T247 0T197 -4Q139 -4 109 27Q100 35 96 49T92 75T93 106T94 135ZM94 936Q94 964
106 978T150 993Q163 993 190 989T240 985Q255 985 264 972T274 942Q274 925 275 903T276 871T275 849T266 827Q254 808 237 804T162 799Q131 799 117 810T96 846Q93 856 93 868T93 902T94 936Z" />
<glyph unicode=";" glyph-name="semicolon" horiz-adv-x="380" d="M152 -211Q121 -207 129 -168Q131 -155 146 -113T162 -57Q162 -32 129 -9T92 39Q85 113 92 162Q98 201 150 201Q161 201 181 204T221 208T262 201Q278 196 281 175T285 113Q285 107 285 104Q285
17 272 -18Q236 -125 199 -193Q184 -217 152 -211ZM164 793Q119 793 107 818T94 899Q94 964 123 979Q133 985 145 987T167 990T198 990T231 989Q252 989 266 978T281 948Q281 933 284 898T287 846Q287 821 274 809T240 797Q225 797 200 795T164 793Z" />
<glyph unicode="&lt;" glyph-name="less" horiz-adv-x="811" d="M70 739Q70 784 98 801Q118 814 140 822T192 839T238 854L465 940Q644 1010 694 1010Q721 1010 721 971Q721 954 725 932T729 901Q729 869 716 856T672 836Q650 832 609 822T555 809Q524 801 495
791T424 763T365 739Q362 737 348 731T327 720T319 711Q319 694 365 678Q442 645 481 635Q578 610 684 571Q717 559 717 522Q717 512 716 495T715 469Q715 449 708 431T682 412Q668 412 654 414T622 423T593 434T557 450T520 467Q435 503 424 510Q403 520 360 534T307
551Q255 572 186 601T113 633Q103 637 95 642T83 656T75 669T71 686T70 702T69 721T70 739Z" />
<glyph unicode="=" glyph-name="equal" horiz-adv-x="811" d="M125 477Q103 477 87 491T70 528Q70 546 76 560T82 586Q82 601 84 609T95 625T121 633H211Q263 633 360 636T537 640T688 633Q715 630 727 613T739 578Q739 557 732 533T725 506Q723 493 714 485T690
477Q642 477 581 479T479 481T403 477Q362 473 316 473T213 475T125 477ZM741 868Q741 839 726 823T682 807Q616 807 484 810T264 813Q260 813 210 811T156 809Q74 809 74 848Q74 858 78 880T82 915Q82 935 95 950T125 965Q184 965 291 964T486 962T649 965Q706
966 723 945T741 868Z" />
<glyph unicode="&gt;" glyph-name="greater" horiz-adv-x="811" d="M489 709T489 719T471 741T434 758Q321 793 295 803Q277 809 229 827T174 848Q166 850 151 855T132 861T117 867T104 873T95 880T87 889T84 901T81 916T80 936Q80 986 90 1001T139 1016Q194 1016
264 991T432 920Q447 913 455 909Q464 905 485 897T564 868T690 821Q723 809 734 791T745 727Q745 679 734 663T672 621Q633 601 546 569T430 520Q394 499 350 482T247 447T160 418Q78 395 78 457Q78 466 83 486T88 516Q88 557 141 575Q221 604 440 678Q455 683
472 696Z" />
<glyph unicode="?" glyph-name="question" horiz-adv-x="737" d="M250 387Q250 550 336 678Q403 775 424 825Q450 883 466 965T483 1106Q483 1189 463 1220T379 1251Q330 1251 301 1229T265 1173T253 1100T247 1027T231 971T186 948Q173 948 145 953T102 958Q75
958 60 976T45 1026Q45 1039 44 1068T43 1119T47 1165Q62 1290 150 1370T385 1450Q468 1450 531 1418T629 1331T682 1213T700 1079Q700 1004 677 917T604 768Q575 732 542 664T481 561Q430 498 430 377Q430 352 423 336T399 314T372 307T342 305Q319 305 310 305T286
310T266 322T255 346T250 387ZM246 63Q246 72 246 88T245 115T245 139T249 161T257 177T270 189T291 193Q300 193 338 198T399 197Q444 189 444 100Q444 75 443 60T436 29T418 6T385 -2Q372 -2 339 1T287 4Q267 3 257 20T246 63ZM420 49Q415 58 410 59Q356 59 356
45Q356 27 371 27Q420 27 420 49Z" />
<glyph unicode="@" glyph-name="at" horiz-adv-x="1411" d="M66 668Q66 824 104 932T219 1161Q219 1162 244 1202T282 1260T325 1311T387 1370Q552 1499 811 1499Q864 1499 904 1495T978 1479T1031 1460T1085 1433T1139 1405Q1191 1379 1232 1331T1298 1228T1337
1113T1358 1006T1364 922Q1364 868 1356 818T1348 739Q1348 691 1331 632T1280 513T1201 404T1094 323T965 291Q931 291 907 300T870 322T849 348T834 370T819 379Q802 379 780 366T737 338T681 310T606 297Q505 297 460 363T414 541Q414 570 422 630T430 725Q430
774 445 832T491 949T575 1048T696 1092Q739 1092 764 1086T796 1071T819 1056T860 1049Q868 1049 875 1055T888 1070T911 1085T952 1092Q962 1092 980 1087T1006 1081Q1047 1075 1047 1014Q1047 990 1036 918Q1032 895 1012 711Q1008 677 1002 633T994 565T991
526Q991 495 1003 486T1049 477Q1109 477 1157 570T1206 809V997Q1206 1097 1124 1223Q1011 1343 809 1343Q663 1343 577 1302T385 1145Q313 1064 277 908T240 606Q240 539 244 487T260 374T294 270T352 188T442 129Q467 120 518 86Q588 45 741 45Q836 45 879 63L1020
119Q1063 135 1086 139T1121 136T1133 104Q1133 102 1133 90T1133 74T1132 59T1129 43T1122 29T1112 14Q1104 5 1075 -4T1026 -27Q976 -62 869 -79T700 -96Q587 -96 475 -57Q389 -28 324 13T214 108T140 221T94 355T72 503T66 668ZM604 649Q604 642 605 616T607
578T613 544T628 512T656 492T700 483Q723 483 742 489T774 505T797 532T812 563T821 600T827 637T831 675T834 709L846 836Q846 871 811 892T739 913Q698 913 675 889T637 819Q600 725 604 649Z" />
<glyph unicode="A" glyph-name="A" horiz-adv-x="833" d="M47 51Q47 75 54 105T61 168Q61 210 80 278T100 377Q100 414 110 470T121 539Q137 667 155 781T194 1011T225 1184Q231 1221 235 1265T240 1331T248 1377T268 1412T307 1429T375 1436Q509 1436 548 1418T588
1335Q588 1321 605 1222T644 981T678 741Q685 675 716 517T758 281Q759 273 766 222T778 128T784 72Q784 42 777 29T737 8T633 0Q609 0 595 21T578 69T572 136T565 197Q559 225 540 242T488 265T429 270T363 269T309 266Q269 266 254 224T233 120T217 37Q205 10
188 2T119 -6Q88 -6 68 9T47 51ZM301 500Q301 471 316 455T358 438Q365 438 380 438T403 437T426 438T448 440T467 444T484 452T496 463T505 479T508 500Q508 544 503 590T487 698T471 795Q469 806 464 851T455 919T444 974T426 1021T403 1036Q379 1036 375 999Q363
920 338 807Q337 800 330 783T322 748Q322 742 323 729T324 705Q324 666 313 600T301 500ZM625 453Q625 460 624 461T614 463Q603 463 593 456T582 440Q582 422 596 422Q625 422 625 453Z" />
<glyph unicode="B" glyph-name="B" horiz-adv-x="831" d="M711 451Q711 420 739 420Q751 420 762 395T774 346Q774 207 707 113Q671 69 647 49Q592 -6 373 -6Q334 -6 267 -2T164 2Q150 2 139 5T120 16T106 30T97 50T91 70T87 94T86 115T86 138V156Q86 175 89 204T92
256Q92 304 89 403T86 553Q86 587 89 650T92 748Q92 776 89 832T86 918Q86 971 89 1062T92 1206Q92 1230 89 1277T86 1350Q86 1393 119 1414T199 1436Q239 1436 315 1438T436 1440Q478 1440 520 1431T605 1399T680 1345T733 1265T754 1159Q754 1082 753 1045T743
960T717 877Q708 858 690 833T661 788T649 756Q649 740 656 729T676 706T694 684Q696 681 703 669T713 653T723 637T734 620T742 603T751 584T758 566T763 547T766 528T768 508Q768 481 765 470T759 458T743 458T721 461Q711 461 711 451ZM305 233Q305 218 317
204T348 186Q393 179 453 189T549 242Q556 251 561 315T567 461Q567 554 525 596T414 639Q412 639 398 639T381 639T366 639T352 637T340 633T329 628T320 619T312 608T308 593T305 573Q301 475 301 414Q301 401 303 326T305 233ZM541 1116Q541 1160 510 1200T436
1241Q423 1241 395 1242T352 1243Q333 1241 320 1229T305 1196Q298 1146 303 1040T305 887Q304 864 319 852T350 838T389 836Q429 836 457 846T502 873T528 915T540 968T543 1030Q543 1045 542 1074T541 1116Z" />
<glyph unicode="C" glyph-name="C" horiz-adv-x="790" d="M66 387Q66 432 72 459L78 478Q84 498 84 504Q84 522 79 550T72 590Q68 631 68 715V852Q68 872 72 911T76 961Q76 1119 78 1130Q88 1179 96 1210T120 1280T155 1343T207 1392T281 1430Q343 1452 375 1452Q456
1452 518 1430T620 1372T683 1283T717 1178T727 1061Q727 1031 726 1015T718 978T695 946T651 936Q647 936 637 936T620 935T599 937T571 944Q531 955 526 999Q525 1009 520 1027T514 1055Q514 1086 513 1105T507 1153T490 1199T458 1228T406 1241Q375 1241 352
1228T317 1188T297 1134T289 1066T287 997T289 926T291 866T293 811T295 758Q295 740 293 712T291 668Q291 636 290 542T289 388T293 295Q297 250 332 220T412 190Q459 190 486 224T514 305Q514 327 512 365T510 422Q510 493 527 519T608 545Q633 545 643 545T674
540T704 525T719 496Q725 457 725 362Q725 306 715 252T681 143T614 51T510 0Q418 -18 371 -18Q341 -18 287 -1T201 39Q101 108 84 227Q66 353 66 387ZM162 758Q162 727 190 727Q205 727 205 745Q205 754 194 761T172 768Q165 768 164 766T162 758Z" />
<glyph unicode="D" glyph-name="D" horiz-adv-x="835" d="M172 12Q130 12 108 39T84 100Q81 159 86 323T80 549Q72 650 73 708T80 870T86 1030Q86 1156 94 1356Q96 1385 118 1408T182 1432Q222 1432 291 1435T412 1439T508 1432Q603 1417 663 1370T750 1227Q768
1158 768 1085V940Q768 916 763 890T758 858Q758 800 764 681T770 504Q770 332 768 301Q754 134 623 49Q574 17 509 8T352 -2Q336 -2 265 5T172 12ZM403 1243Q377 1243 364 1242T332 1236T306 1216T297 1178Q297 1128 295 1037T292 872T297 731Q304 663 299 505T297
279Q300 225 320 211T389 197T472 208T523 240T549 287T558 346T557 414Q556 453 560 575T557 735Q555 752 555 836Q556 876 560 940T564 1032T561 1118Q552 1190 516 1216T403 1243ZM168 1364Q163 1373 158 1374Q147 1374 139 1368T131 1352Q131 1347 128 1340T125
1330T127 1323Q135 1318 151 1334T168 1364Z" />
<glyph unicode="E" glyph-name="E" horiz-adv-x="753" d="M446 715Q446 694 459 694Q466 693 467 696T469 707Q469 713 464 719T453 725Q446 725 446 715ZM700 1315Q700 1290 693 1275T671 1253T643 1245T610 1243H416Q342 1243 323 1221T303 1114Q303 1080 305
1022T307 934V881Q307 841 326 829T385 817H547Q604 817 610 762Q611 751 605 728T598 694Q598 663 590 652T555 636T463 631Q357 631 334 621Q311 610 311 578Q311 444 309 422Q299 329 307 252Q308 240 311 231T319 214T329 202T343 194T358 189T375 187T393
186T413 186T432 186Q478 186 530 184T600 182Q663 186 680 166T698 92V82Q698 71 698 68T697 55T693 40T685 27T671 15T652 6T625 0Q585 -5 545 -5T438 -3T358 0Q268 4 238 4Q231 4 208 3T178 2Q139 2 120 28T96 104Q91 157 95 278T94 467Q84 616 85 691T94 846T102
944Q102 976 98 1028T94 1108Q94 1136 97 1222T100 1335Q100 1395 141 1417T266 1440Q277 1440 329 1437T387 1434Q416 1434 463 1436T548 1438T625 1434Q672 1428 686 1403T700 1315Z" />
<glyph unicode="F" glyph-name="F" horiz-adv-x="698" d="M100 139Q100 177 104 253T109 367Q110 388 107 426T104 483Q104 503 106 542T109 604Q109 620 107 646T104 686Q104 700 106 730T109 778Q109 784 107 816T104 879Q104 912 107 995T111 1128V1315Q109
1359 127 1391T184 1427Q210 1430 232 1431T268 1433T309 1433T356 1432Q383 1432 422 1433T488 1435T547 1436T600 1432T641 1424T669 1407T678 1380Q678 1366 674 1335T670 1288Q670 1260 660 1249T625 1237Q622 1237 582 1236T518 1231Q497 1228 476 1228T428
1229T385 1231Q360 1231 344 1212T328 1165Q328 1157 330 1124T332 1085Q332 1063 327 1015T322 936Q322 925 323 904T324 868Q324 815 336 796T383 780Q408 782 464 778T549 776Q582 779 593 758T604 702Q604 688 601 669T598 645Q598 627 590 616T561 599T522
593T471 592Q461 592 441 592T409 593T381 592T355 588T336 580T322 565T317 543Q317 519 313 478T309 416Q307 327 308 210T307 92Q302 46 286 27T233 8Q224 12 206 6T172 0Q131 0 116 32T100 139ZM139 319Q139 299 154 299Q165 299 168 301T172 313Q172 334 154
334Q143 334 141 332T139 319Z" />
<glyph unicode="G" glyph-name="G" horiz-adv-x="798" d="M80 817Q79 844 77 908T74 1006Q74 1049 74 1072T78 1137T89 1206T111 1269T147 1331T200 1383T274 1427Q331 1452 403 1452Q434 1452 535 1425Q573 1415 602 1392T650 1336T678 1275T696 1212Q715 1136
715 1094Q715 1015 710 998Q699 958 641 953Q631 952 618 952Q528 952 528 1016V1135Q528 1185 485 1226T391 1268Q357 1268 333 1249T296 1199T279 1136T274 1069Q274 1063 279 1020T285 954Q285 952 284 935T283 896T282 839T283 764Q286 692 282 530T283 295Q286
246 313 207T371 168Q376 168 390 168T413 167T433 169T455 174T473 184Q493 200 506 219T524 263T531 303T535 348Q535 353 537 392T539 438Q539 449 539 468Q539 545 534 563T502 582Q426 582 426 623Q426 644 421 676T416 725Q416 753 436 766T487 780H588Q598
780 617 778T647 776Q662 776 673 773T693 761T708 745T717 722T723 697T726 668T727 638T727 606T727 575Q727 539 728 472T729 371Q729 254 696 158Q677 101 629 61T524 2T408 -16Q346 -16 315 -10T246 18Q241 21 212 34T168 61Q124 101 103 166T80 299Q73 469
80 575Q84 642 80 817ZM571 442Q571 453 570 455T557 457Q552 457 551 456T550 450Q551 443 551 438Q551 434 549 429Q548 425 549 424T557 422Q571 422 571 442Z" />
<glyph unicode="H" glyph-name="H" horiz-adv-x="874" d="M82 166Q82 266 86 317Q89 365 85 468T82 618Q85 675 85 750T85 938T84 1092Q84 1188 96 1260Q98 1270 98 1317T102 1380Q113 1432 225 1432Q281 1432 291 1366Q299 1314 299 1008Q299 1003 298 969T297
915Q297 893 298 880T301 855T311 836T328 825T354 818T393 817T446 819Q531 824 551 837Q573 851 575 907Q575 902 575 1028Q575 1038 573 1092T571 1210Q571 1222 570 1251T569 1299T571 1342T582 1381T606 1406T645 1417Q658 1417 683 1425T725 1434Q745 1434
758 1425T776 1399T782 1369T784 1337Q784 1310 785 1259T786 1165T784 1083Q780 1042 782 917T784 750Q784 708 778 594T772 397Q772 378 778 289T784 147Q784 142 784 123T785 95T783 69T776 42T763 22T742 7T711 2Q697 2 671 7T631 12Q612 12 599 19T581 42T574
68T572 99T571 121Q564 198 573 276Q578 277 576 358L573 440Q573 451 574 475T576 522T573 563Q566 611 550 623T479 635Q454 635 408 632T342 627Q321 626 312 615T301 591T299 545Q299 525 300 475T301 389T297 317Q294 272 296 186T295 61Q294 39 286 25T265
6T241 -2T213 -4Q210 -4 205 -4Q182 -4 169 -3T137 2T106 17T92 47Q82 103 82 166ZM600 573Q600 562 607 551T623 539Q629 539 637 550T645 571Q645 579 638 584T623 590Q615 590 608 585T600 573Z" />
<glyph unicode="I" glyph-name="I" horiz-adv-x="389" d="M96 78Q96 122 97 276T98 528Q98 558 93 648T88 748Q88 790 91 863T95 976T92 1087Q89 1163 89 1183T91 1279T94 1366Q95 1401 121 1419T186 1438Q204 1438 223 1430T260 1421Q303 1421 303 1276Q303 1238
298 1166T293 1063Q293 1026 298 957T303 854Q303 785 297 698T291 594Q291 564 294 502T297 403Q297 402 298 321T300 176T299 59Q297 32 284 19T240 2Q234 1 222 -1T195 -5T164 -6Q148 -5 139 -3T119 7T102 32T96 78ZM229 1380T229 1370T242 1360Q252 1360 252
1370Q252 1384 242 1384Q234 1384 232 1382Z" />
<glyph unicode="J" glyph-name="J" horiz-adv-x="524" d="M444 426Q444 380 442 343T433 259T413 175T377 103T322 42T243 3T137 -12Q125 -12 114 -11T87 -3T61 13T43 41T35 84Q35 93 40 109T45 135Q45 159 65 170T113 187T170 200T218 238T238 317Q238 368 242
438T246 512Q246 523 240 550T233 592Q233 609 234 637T236 678Q236 709 235 780T233 887Q233 916 238 1036T238 1180Q233 1193 236 1269T240 1354Q240 1384 248 1402T275 1428T308 1438T346 1440Q444 1440 444 1362Q444 1342 446 1305T448 1235T444 1171Q437 1102
437 1044T438 936T440 860Q439 836 441 793T444 733Q444 712 443 675T442 621Q442 588 443 524T444 426ZM291 479Q291 459 303 459Q324 459 324 481Q324 500 305 500Q291 500 291 479Z" />
<glyph unicode="K" glyph-name="K" horiz-adv-x="847" d="M98 74Q98 84 97 132T96 215Q96 226 101 255T106 311Q106 332 100 428T94 561Q94 577 95 620T96 682Q96 689 103 723T111 782Q111 805 104 845T94 909Q92 937 95 1015T92 1143Q89 1181 89 1215T92 1301T94
1364Q94 1423 143 1434Q161 1438 227 1438Q254 1438 274 1424T295 1386Q295 1384 297 1369T300 1340T299 1313Q293 1276 299 1204Q308 1111 305 1024Q301 937 305 909Q312 870 332 870Q344 870 355 884T373 913Q420 1034 430 1044Q433 1047 436 1050T443 1055T449
1059Q453 1063 455 1073T461 1101T475 1137Q476 1138 485 1156T506 1196T528 1243Q587 1366 602 1389Q619 1411 629 1420T659 1436Q682 1440 695 1440T733 1437T770 1434Q807 1434 807 1395Q807 1360 764 1274L604 965Q599 955 581 903T555 836Q520 760 590 602Q601
577 630 513T675 413T700 342Q717 284 746 222T778 150Q807 70 803 47Q801 31 793 21T766 8T735 3T696 3T659 4Q649 4 641 6T625 10T612 17T601 26T592 38T585 50T578 65T572 79T567 96T561 113Q556 128 542 160T522 211Q509 251 473 339T420 485Q408 541 379 541Q356
541 333 509T305 451Q299 387 299 328Q299 322 302 259T305 156Q305 146 306 122T307 80T303 45Q301 31 292 21T272 6T244 -1T217 -4T189 -4H170Q140 -4 119 14T98 74ZM186 227Q186 215 197 215Q209 215 209 225Q209 238 197 238Q186 238 186 227Z" />
<glyph unicode="L" glyph-name="L" horiz-adv-x="694" d="M152 2Q128 2 112 16T96 59Q96 62 98 73T101 93T98 113Q92 127 92 156V276Q92 292 95 387T94 506Q90 591 90 639T94 772T98 905Q98 923 104 960T109 1034Q109 1045 101 1072T92 1145Q94 1233 94 1356Q94
1384 103 1401T129 1425T159 1434T193 1436Q279 1436 296 1403Q304 1388 307 1335Q310 1280 306 1190T305 1067Q308 1008 308 960T304 843T301 758Q301 735 301 692T300 622T301 560T305 494Q311 465 306 367T301 248Q301 224 315 203T350 182Q373 184 422 183T489
182Q517 183 539 183T578 183T608 179T630 172T645 162T654 149T659 132T661 112T662 88Q662 38 652 18T618 0Q556 2 474 -1T371 -4Q337 -4 264 -1T152 2ZM137 1292Q137 1280 150 1280Q160 1280 160 1292Q160 1298 158 1299T150 1300Q137 1300 137 1292Z" />
<glyph unicode="M" glyph-name="M" horiz-adv-x="1107" d="M451 45Q427 133 422 174Q421 178 418 198T413 235T410 256Q410 266 409 285T408 315Q408 340 394 386T377 446Q346 637 332 700Q320 754 297 766Q281 775 276 745Q274 736 274 723Q274 700 273 661T272
600Q272 579 269 509T268 399Q272 365 269 294T266 207Q266 194 265 172T264 141Q264 129 265 105T266 63Q266 42 254 22T211 2Q205 2 188 -2T154 -4Q124 0 109 16T92 51Q88 85 87 123T87 213T88 281Q88 321 87 352T86 428Q86 436 91 514T90 657Q86 754 86 817T90
950L92 1020Q92 1051 89 1157T86 1360Q86 1434 137 1434Q152 1434 182 1438T229 1442Q243 1442 278 1439T330 1436Q345 1436 355 1433T374 1418T386 1400T395 1372T401 1342T406 1305Q407 1295 408 1290Q411 1270 421 1223T432 1151Q437 1122 435 1093T432 1057Q435
1017 455 959T477 868Q479 826 495 767T518 676Q522 655 525 632T530 597T535 576T545 563T563 559Q571 559 577 567T588 589T594 616T599 643T602 662L623 760Q626 772 627 804T631 854L645 918Q651 957 660 1028T676 1137L709 1339Q716 1377 728 1397T766 1421Q783
1423 811 1434T899 1446Q1014 1446 1014 1374Q1014 1363 1015 1345T1016 1296Q1016 1271 1015 1219T1014 1145Q1014 1131 1015 1111T1016 1079Q1019 987 1019 931T1016 818T1014 760Q1014 747 1015 714T1016 657Q1016 631 1010 569T1004 483Q1004 461 1010 393T1016
299V182Q1016 176 1015 141T1014 98Q1014 6 942 6Q932 6 912 3T881 0Q841 0 827 18T813 94Q813 102 814 124T815 160Q815 163 813 195T813 233Q818 267 812 330T805 416Q805 454 809 537T813 668Q813 748 793 746Q771 742 753 649Q748 626 745 600Q744 597 741
579T735 542T729 508Q723 452 704 354T680 219Q662 85 653 41Q650 25 643 16T622 3T599 -1T569 -2Q544 -2 533 -2T500 3T467 17T451 45ZM342 827Q342 820 348 813T362 805Q379 805 379 825Q379 848 360 848Q342 848 342 827Z" />
<glyph unicode="N" glyph-name="N" horiz-adv-x="874" d="M84 92Q93 255 84 420Q82 472 90 661T90 967Q88 993 90 1053T90 1141Q79 1236 88 1341Q92 1394 111 1414T164 1434Q177 1434 202 1432T242 1430Q254 1430 276 1431T307 1432Q356 1432 377 1346Q471 984
514 870Q529 828 538 796T551 746T555 727Q563 694 580 694Q587 694 592 704T598 723Q612 860 612 963Q612 981 607 1034T602 1135Q602 1337 604 1376Q607 1425 651 1425Q662 1425 682 1431T705 1438Q707 1438 721 1438T739 1439T753 1436T767 1429T774 1415Q784
1375 784 1272V1008Q784 978 779 937T774 877Q774 862 778 836T782 799Q782 782 780 752T778 705Q778 666 781 582T784 455V358Q784 331 781 205T778 70Q778 32 759 16T694 0Q691 0 684 0Q659 0 646 0T613 5T583 19T565 47Q563 52 550 85T522 164T494 270Q483 317
453 416T410 571Q401 615 374 699T338 821Q334 841 322 865T297 889Q274 889 274 844Q271 795 272 695T270 545Q267 497 269 394T268 248Q265 247 266 162L268 78Q268 36 253 18T205 0H150Q81 0 84 92ZM643 940Q643 903 676 903Q694 903 694 924Q694 937 684 950T659
963Q643 963 643 940Z" />
<glyph unicode="O" glyph-name="O" horiz-adv-x="811" d="M88 236Q80 309 80 383Q80 394 84 416T88 449Q88 457 86 477T82 544T80 662Q80 739 81 790T84 863T86 893Q86 930 83 1003T80 1114Q80 1261 149 1351T330 1442Q354 1442 387 1450T444 1458Q553 1458 614
1405Q748 1287 739 1118Q736 1062 741 938T741 758Q736 685 741 538T739 287Q736 231 707 166T633 57Q592 20 529 2T403 -16Q332 -16 264 12T146 100T88 236ZM266 512Q265 484 272 445T279 385Q279 339 283 307T300 242T340 193T408 176Q467 176 497 218T528 319Q528
369 524 466T520 612Q520 649 526 666Q535 691 536 712T535 759T532 799Q532 870 533 938T534 1047T535 1096Q535 1168 505 1221T408 1274Q347 1274 312 1225T276 1110Q276 1062 277 964T279 815Q279 813 280 799T283 751T285 670Q285 604 276 560T266 512ZM547
623Q547 607 552 602T567 600Q584 606 584 621Q584 639 565 643Q556 645 552 641T547 623Z" />
<glyph unicode="P" glyph-name="P" horiz-adv-x="772" d="M360 1241Q336 1241 317 1230T297 1194Q297 1186 295 1167T293 1131T295 1077Q304 1000 297 803Q296 772 312 756T345 736T391 733Q421 733 444 739T483 755T508 782T524 811T532 845T535 878T535 910Q535
917 535 920Q535 982 536 1064L537 1145Q537 1241 360 1241ZM219 8Q209 8 180 4T137 0Q84 0 84 72Q84 84 86 120T88 178Q85 228 87 342T88 506Q88 512 87 536T86 565Q86 580 89 666T92 770Q92 792 91 840T88 928T86 971Q86 980 87 1078T88 1184Q89 1202 88 1247T88
1311Q93 1371 121 1403T199 1436Q240 1436 314 1434T434 1432Q553 1432 618 1372Q706 1296 729 1202Q748 1133 748 1087V838Q748 756 695 671T555 559Q496 543 348 537Q308 527 297 481Q285 445 285 395Q285 379 288 346T291 293Q291 292 292 229T291 166Q288 155
290 119T293 76Q293 40 276 24T219 8ZM209 86Q209 78 212 76T225 74Q230 74 237 80T244 94Q244 97 240 100T231 104Q224 104 217 98T209 86Z" />
<glyph unicode="Q" glyph-name="Q" horiz-adv-x="811" d="M524 2Q504 2 461 -7T395 -16Q306 -16 217 31T113 152Q109 173 97 212T82 279Q75 339 72 416T69 545T69 695T70 827Q70 844 72 930T74 1071Q74 1119 111 1235Q137 1326 218 1388T403 1450Q575 1450 653
1339Q681 1301 703 1238T725 1141Q725 1088 728 975T731 807Q731 759 726 659T721 506Q721 500 723 485T725 463Q725 450 720 420T715 377Q715 319 714 300T706 246T682 164Q674 141 686 126T717 103T754 84T772 55Q772 54 773 29T773 -10T768 -44T753 -74T725
-84Q695 -84 643 -63Q629 -58 593 -28T524 2ZM283 352Q283 307 286 280T302 226T342 188T412 176Q430 176 441 177T466 182T489 196T502 221Q504 223 513 253T524 287Q522 309 522 350Q522 381 526 425T530 494Q530 553 527 666T524 827Q524 846 527 876T530 909V1104Q530
1165 493 1206T399 1247Q350 1247 320 1215T287 1118Q275 811 287 668Q289 648 289 626T288 575T287 532Q287 519 288 494T289 447T287 408Q283 362 283 352ZM614 459Q614 434 637 434Q647 434 651 434T658 439T662 453Q662 477 629 477Q614 477 614 459Z" />
<glyph unicode="R" glyph-name="R" horiz-adv-x="823" d="M88 59Q83 105 86 220T88 381Q88 392 87 413T86 444Q86 464 89 501T92 555Q92 556 91 589T89 672T88 760Q88 790 92 860Q94 899 91 987T90 1122Q96 1233 96 1333Q96 1379 119 1403T209 1434Q242 1437 323
1435T442 1434Q459 1436 505 1427T573 1409Q647 1378 697 1304T748 1149Q748 1125 750 1084T753 1010T748 946Q739 903 734 882T716 827T686 768Q680 759 667 743T646 713T637 688Q637 678 644 669T666 643T692 608Q717 568 729 499T741 369Q741 328 742 263T743
162V100Q743 92 754 65T758 20Q755 15 749 11T732 5T712 1T688 -1T666 -2T645 -2T631 -2Q600 -2 581 7T553 35T543 69T541 111Q541 357 529 433Q511 548 447 575Q421 586 385 586Q355 586 340 584T314 572T303 539Q303 509 298 411T297 258Q303 195 303 68Q303
26 276 12T182 -2Q144 -2 118 13T88 59ZM303 815Q305 781 324 766T389 750Q422 750 455 772Q477 786 492 801T516 828T529 862T536 893T540 934T543 977Q543 980 548 1002T553 1032Q553 1245 432 1245Q353 1245 330 1232T303 1167Q302 1151 299 1112T296 1056T299
999Q303 965 303 908T303 815ZM109 834Q109 818 110 816T121 813T134 813T143 819T147 834Q147 841 140 846T121 852Q109 852 109 834Z" />
<glyph unicode="S" glyph-name="S" horiz-adv-x="765" d="M80 223Q79 235 80 259T82 293Q82 304 78 326T74 360Q74 401 79 424T98 459T126 472T168 475Q244 475 244 416Q244 406 244 388T243 355T244 328Q249 256 285 213T379 170Q440 170 471 207T502 309Q502
447 393 565Q381 580 346 607T301 647Q290 661 277 676T253 700T226 725T199 750Q138 809 101 902T63 1055Q63 1213 109 1305Q120 1327 134 1344T158 1368T188 1387T215 1405Q251 1429 283 1439T367 1450Q448 1450 529 1423T645 1335Q652 1324 657 1311T666 1289T673
1263T680 1239Q682 1231 692 1198T706 1143T711 1098Q711 1069 703 1056T666 1036Q601 1024 598 1022Q585 1021 567 1021T532 1039T516 1087Q516 1174 487 1220T371 1266Q339 1266 323 1253T295 1212Q293 1207 287 1195T278 1177T273 1154T270 1116Q270 1063 281
1022T316 950T361 896T417 844T473 791Q484 780 508 743T547 690Q549 688 585 657T637 599T653 539Q653 534 650 509T651 479Q657 460 674 447T698 424Q709 406 709 342T694 218T646 104T554 17T416 -16H348Q315 -16 268 3T203 35Q153 68 119 119T80 223ZM559 291Q559
266 590 266Q605 266 609 272T614 293Q614 319 590 319Q576 319 568 311T559 291Z" />
<glyph unicode="T" glyph-name="T" horiz-adv-x="729" d="M276 47Q276 65 273 142T270 231Q270 250 273 290T276 354Q276 413 271 536T266 721Q266 794 268 934T270 1143Q270 1183 257 1210T213 1237Q191 1236 151 1238T94 1241Q63 1241 46 1257T29 1298Q29 1301
28 1336T29 1374Q35 1427 76 1427Q115 1426 174 1429T266 1432Q291 1431 381 1434T496 1432Q533 1427 668 1432Q688 1433 698 1418T711 1382Q713 1356 705 1325T696 1284Q693 1245 643 1245Q629 1245 604 1246T557 1247T518 1245Q471 1241 471 1200Q471 1175 472
1128T474 1044T469 971Q463 925 471 793T475 594Q472 550 475 461T475 330Q471 278 475 185T475 45Q473 24 459 9T422 -6Q395 -6 313 2Q297 3 287 17T276 47ZM293 94Q298 85 303 84Q330 84 336 106Q340 120 331 126Q326 129 322 125Q315 118 307 114T296 106T293
94Z" />
<glyph unicode="U" glyph-name="U" horiz-adv-x="815" d="M82 303Q82 316 83 340T84 382T82 416Q74 519 74 574T80 703T86 801T88 870T90 953T86 1024Q82 1054 82 1178Q82 1208 90 1226T98 1251Q98 1266 91 1302T84 1364Q84 1391 97 1411T137 1432Q153 1432 181
1435T233 1438Q255 1438 273 1426T291 1393Q291 1388 293 1359T295 1323Q295 1287 293 1206T291 1077Q291 1068 293 1049T295 1020V545Q295 351 301 270Q306 227 338 197T416 166Q464 166 500 199T539 283Q541 315 536 365T532 446Q537 515 531 650T528 858Q532
962 528 1014Q524 1072 529 1177T530 1323Q527 1384 544 1407T596 1430Q607 1430 631 1433T674 1434Q696 1432 711 1411T725 1356Q721 1225 726 1047T727 827Q724 794 727 728T727 629Q722 565 726 457T725 293Q721 252 694 178Q668 106 649 88Q542 -16 362 -16Q315
-16 281 -2Q271 2 250 8T216 20T188 39Q125 90 104 156T82 303ZM127 1274Q127 1249 139 1249Q147 1249 147 1262Q147 1271 140 1278Q137 1280 135 1282Q130 1285 129 1283T127 1274Z" />
<glyph unicode="V" glyph-name="V" horiz-adv-x="823" d="M252 57Q248 104 221 246Q213 290 199 393T172 551Q144 671 119 872Q106 966 92 1047Q49 1283 49 1386Q49 1398 52 1407T65 1421T80 1430T101 1434T122 1436T144 1437T164 1436Q190 1436 213 1425T244
1391Q269 1307 295 1106Q298 1087 302 1047T309 987Q314 955 329 835T360 649Q368 620 372 588T381 516T389 455Q390 443 393 430T406 403T426 389Q447 389 455 449Q458 469 461 506T468 567T477 623T492 686Q500 718 504 776Q508 867 534 988T567 1194Q573 1260
586 1327Q596 1388 611 1410T670 1432Q681 1432 700 1426T727 1421Q751 1424 768 1411T784 1370Q782 1325 762 1243T739 1116Q736 1046 705 862Q701 839 697 786T682 692Q661 613 640 480T614 326Q611 292 611 251T608 197Q605 170 596 123T584 61Q579 32 559 17T492
-2Q451 -5 397 1T315 8Q286 8 270 22T252 57ZM543 188Q543 177 545 174T555 170T563 171T565 180Q565 199 559 199Q554 199 549 196T543 188Z" />
<glyph unicode="W" glyph-name="W" horiz-adv-x="1153" d="M406 459Q406 462 400 464T389 467Q385 467 375 462T356 457Q352 457 352 453Q352 447 358 440T373 432Q383 432 394 441T406 459ZM195 156Q163 400 160 453Q159 472 145 567T131 729Q131 735 125 755T119
791Q119 855 102 945T82 1073Q80 1094 74 1153T63 1264T59 1352Q59 1386 71 1402T115 1427Q128 1431 142 1431T177 1431T205 1430Q225 1430 238 1414T254 1374Q256 1344 265 1280T276 1180Q284 1086 297 1022Q305 979 314 850T332 651Q335 625 340 585Q346 527
351 511T373 494Q390 494 394 511T405 599Q416 733 430 854Q431 863 437 909T444 979Q444 1013 452 1067T461 1130Q462 1154 467 1200T475 1268Q476 1281 477 1304T478 1341T483 1373T493 1402T513 1419T545 1427Q554 1427 583 1434T635 1438Q666 1434 674 1408T693
1270Q696 1240 698 1223T705 1143T717 1044Q724 1000 730 917T739 815Q751 703 756 664Q760 633 766 586Q776 513 782 494T807 475Q827 475 833 508T848 650Q849 666 850 674Q851 683 857 750T864 854Q864 908 879 1007T897 1147Q897 1156 918 1382Q921 1427 969
1427Q977 1427 1005 1433T1049 1434Q1097 1417 1094 1376Q1092 1355 1087 1317T1078 1248T1073 1188Q1070 1109 1063 1031T1040 824T1020 666Q1019 658 1018 636T1016 595T1012 565Q1010 551 997 476T977 358Q965 292 965 248Q965 229 961 193Q955 107 943 66T913
14T860 2Q845 2 806 0T741 -1T698 6Q649 26 649 150Q649 166 644 205T633 288T625 342Q622 366 614 453Q599 588 584 588Q557 588 555 496Q554 468 543 368T526 186Q518 69 494 31T395 -8Q389 -8 361 -3T301 2Q275 2 257 10T228 26T211 55T203 86T199 123T195 156Z"
/>
<glyph unicode="X" glyph-name="X" horiz-adv-x="880" d="M86 0Q65 0 56 15T51 49Q61 91 99 186T145 307Q151 323 165 360T188 418T205 471T221 530Q227 558 254 629T281 735Q281 823 217 977Q192 1037 151 1153T98 1298Q97 1303 87 1321T72 1358T68 1397Q69 1407
75 1414T91 1425T113 1431T138 1434T163 1435T185 1435T201 1434Q275 1434 293 1376Q315 1309 357 1197T420 1014Q424 999 425 993T434 976T453 965Q460 965 465 967T474 979T480 990T485 1004Q491 1021 503 1055T525 1117T543 1174Q551 1205 572 1265T600 1360Q607
1396 622 1414T666 1430Q683 1427 713 1429T762 1430Q809 1424 801 1372Q796 1342 770 1290T741 1227Q732 1190 707 1117T672 1008Q661 965 634 885T602 788Q587 735 602 688Q615 646 658 540T715 375Q721 350 730 321T747 273T769 220T791 168Q856 6 786 6Q766
6 735 3T678 0Q633 0 606 47Q590 75 572 145T532 274Q478 436 469 469Q457 510 432 510Q410 510 399 479Q391 452 361 373T322 250Q315 219 291 155T258 51Q254 28 235 12T195 -4Q178 -4 141 -2T86 0ZM604 131Q604 121 607 119T621 117Q624 117 628 116Q633 114
633 121T626 133T612 139Q604 139 604 131ZM649 104Q649 99 650 95T655 88T661 83T670 78T678 74Q684 71 688 77T692 92T682 108T659 115Q652 115 651 113T649 104Z" />
<glyph unicode="Y" glyph-name="Y" horiz-adv-x="811" d="M295 39Q291 50 291 71T293 115T295 141Q295 151 296 173T298 214T293 248Q287 270 297 298T307 336Q307 351 301 380T293 416Q285 457 281 499T274 553Q253 669 213 770Q205 791 189 856T154 975Q132
1035 109 1130L53 1346Q44 1383 57 1409T102 1436Q130 1436 182 1444Q201 1447 216 1435T238 1405Q281 1233 295 1188Q296 1183 306 1143T324 1079Q350 1000 365 924Q366 913 370 900T386 873T412 858Q424 858 432 870T442 895Q447 916 464 963T489 1044Q512 1159
565 1323Q568 1331 573 1346T581 1370T590 1392T601 1410T614 1422T631 1427Q647 1427 675 1431T723 1436Q748 1436 763 1419T774 1376Q772 1367 761 1331T748 1286Q745 1276 711 1176T664 1024Q655 987 626 895T586 752Q575 704 547 621T508 494Q500 466 497 366T500
219Q503 198 503 173T504 130T502 82T500 39Q500 24 492 12T467 -4Q443 -9 405 -4T356 2Q307 2 295 39ZM360 442Q360 453 358 455T346 457Q341 457 340 456T339 450Q340 443 340 438Q340 434 338 429Q337 425 338 424T346 422Q360 422 360 442Z" />
<glyph unicode="Z" glyph-name="Z" horiz-adv-x="757" d="M457 1198Q457 1214 447 1226T420 1239Q414 1239 402 1240T378 1241T356 1239Q328 1234 300 1234T222 1236T152 1239Q111 1241 92 1253T72 1296Q72 1306 75 1328T78 1356Q80 1384 88 1401T112 1424T140
1432T178 1434H389Q446 1434 527 1430L608 1427Q688 1427 688 1358Q688 1280 682 1247T643 1130Q638 1117 613 1048T565 919T532 844Q498 791 478 743T443 649T420 584Q384 504 299 266Q297 258 297 240Q297 218 314 205T354 193Q395 197 497 195T639 193Q690 193
690 102Q690 72 688 58T677 27T645 4T584 0Q515 4 377 0T170 0Q108 3 83 20T57 76Q57 178 72 231Q85 288 142 405T215 582Q223 613 237 647T271 726T301 793Q457 1172 457 1198ZM369 63Q369 53 381 53Q389 53 389 68Q389 80 381 80Q369 80 369 63Z" />
<glyph unicode="[" glyph-name="bracketleft" horiz-adv-x="514" d="M90 55Q90 69 91 98T92 143Q92 172 88 226T84 311Q84 353 89 501T90 729Q85 783 87 922T88 1116Q88 1208 86 1225Q75 1287 94 1374Q97 1387 102 1398T113 1415T128 1427T143 1434T160 1438T176
1440T194 1440T209 1440Q231 1440 285 1444T399 1448Q420 1447 433 1440T451 1419T457 1394T459 1364Q459 1310 455 1292Q450 1273 429 1266T385 1259T344 1247T324 1208Q323 1179 325 1108T324 986T311 885Q310 879 303 853T295 811Q295 800 305 737T315 606Q315
583 319 446T324 215Q324 192 339 174T381 152Q386 152 399 152T420 151T438 148T453 139T459 121Q459 107 457 76T455 33Q455 -16 399 -16Q385 -16 356 -13T315 -10Q288 -10 240 -13T168 -16Q128 -16 109 -2T90 55Z" />
<glyph unicode="\" glyph-name="backslash" horiz-adv-x="780" d="M49 1374Q37 1391 47 1415T90 1440Q102 1440 125 1439T168 1438Q187 1438 200 1424T219 1394T233 1350T246 1311L385 940Q393 920 412 884T436 825Q446 777 477 707Q508 641 554 520T631 338Q639
322 668 232T707 125Q709 122 715 109T725 88T733 68T740 46T743 25Q743 -12 684 -12Q641 -12 619 -3T587 20T563 72Q549 108 479 281T377 549Q371 565 355 594T332 641Q322 665 315 709T301 774L300 775Q299 776 297 779T292 786T286 796T279 808T271 822T264
838Q248 874 221 931T180 1020Q160 1070 123 1185T49 1374ZM295 819Q295 811 298 807T309 798T324 788Q330 784 334 790T338 807Q338 816 327 822T305 829Q298 829 297 828T295 819Z" />
<glyph unicode="]" glyph-name="bracketright" horiz-adv-x="514" d="M319 -27Q162 -20 119 -20Q87 -20 68 1T49 53Q49 58 48 73T47 101T49 125Q53 149 70 157T110 165T154 165T190 184T205 242Q205 258 204 288T203 336Q203 369 205 442T207 553Q207 555 208
592T210 675T211 743T209 843T207 934Q207 951 206 970T205 1001Q205 1023 207 1064T209 1141T205 1210Q201 1238 178 1250T130 1263T81 1274T53 1309Q49 1337 49 1376Q49 1398 56 1413T71 1436T98 1447T128 1451T162 1452Q170 1452 174 1452Q207 1452 254 1447T324
1442Q413 1442 418 1366Q421 1312 416 1221T412 1100Q415 1072 418 1050T422 1018T424 1001Q424 915 420 797Q415 678 421 483T420 207Q417 188 420 160T419 99T408 38T377 -8T319 -27Z" />
<glyph unicode="^" glyph-name="asciicircum" horiz-adv-x="811" d="M121 825Q88 825 88 864Q88 873 101 894T117 930Q119 942 129 964L139 987Q145 1002 164 1043T195 1114Q212 1159 243 1231T283 1325Q308 1399 330 1420T403 1442Q466 1442 483 1411Q492 1396
506 1358T532 1300Q546 1278 565 1230T592 1165Q613 1121 692 934Q717 880 711 850Q710 844 704 839T689 832T669 827T647 825T626 825T608 824T596 825Q563 825 545 872Q541 883 521 933T492 1020Q482 1060 449 1141Q440 1165 436 1173T424 1186T403 1192Q372
1192 346 1118Q340 1104 313 1018Q280 935 268 895Q258 855 246 843T209 831Q198 831 171 828T121 825Z" />
<glyph unicode="_" glyph-name="underscore" horiz-adv-x="1024" d="M461 -31Q602 -31 741 -28T885 -25Q955 -25 978 -37T1001 -94Q1001 -140 986 -157T930 -174Q891 -174 820 -176T713 -178Q658 -178 571 -173T430 -168Q419 -168 386 -171T340 -174Q310 -174
256 -169T174 -164Q160 -164 124 -166T76 -168Q55 -168 44 -164T27 -146T21 -122T20 -84Q20 -64 33 -46T68 -25Q87 -22 140 -22T256 -23T330 -25Q352 -25 395 -28T461 -31Z" />
<glyph unicode="`" glyph-name="grave" horiz-adv-x="512" d="M133 1704Q133 1731 166 1731Q177 1731 207 1732T256 1733Q302 1731 322 1702Q387 1612 410 1554Q425 1518 381 1511Q303 1503 268 1540Q264 1544 252 1554T226 1578T197 1608Q189 1615 177 1634T158
1661Q133 1684 133 1704Z" />
<glyph unicode="a" glyph-name="a" horiz-adv-x="833" d="M299 504Q299 458 319 449T426 440Q450 440 457 440T479 442T498 449T507 463T512 487Q512 518 465 834Q461 858 457 900T449 969T440 1023T426 1065T408 1079Q362 1079 350 887Q348 865 328 717Q299 527
299 504ZM53 84Q53 85 53 92T53 103T53 116T55 129T60 139T68 147Q73 150 79 142T94 133Q100 133 106 138T113 150Q113 157 107 162T94 168Q90 168 82 166T72 166Q68 168 68 180Q68 201 77 243T88 297Q90 312 93 343T98 391Q103 431 112 485T128 575T135 618Q135
649 150 709T166 801T171 866T184 941T197 1008Q227 1247 262 1391Q274 1434 326 1434Q344 1434 384 1427T440 1419T480 1426T520 1434Q539 1434 551 1426T570 1402T578 1371T583 1333T588 1296Q589 1292 593 1271T601 1228T606 1202Q607 1197 609 1171T612 1139Q617
1109 626 1062T641 978T653 905Q668 820 668 762Q668 741 677 708T688 670Q690 654 692 618T696 578Q711 525 724 438T743 322Q756 267 773 159T791 49Q794 30 778 16T739 2Q732 2 701 4T637 6Q614 6 602 17T588 43Q587 57 574 121T559 195Q559 198 558 207T556
219T554 229T551 240T547 249T542 257T535 263T525 268T513 271T498 272Q493 272 465 269T399 266Q315 266 295 258Q268 247 257 217T244 150T241 80T222 23T170 0Q121 0 94 6Q79 9 71 15T58 34T54 55T53 84Z" />
<glyph unicode="b" glyph-name="b" horiz-adv-x="831" d="M299 948Q299 880 306 861T350 838Q537 822 537 999Q537 1014 538 1035T540 1070T537 1096Q535 1105 531 1127T523 1160T511 1184T487 1210Q449 1241 377 1241Q329 1241 314 1214T299 1130Q299 1116 300
1088T301 1049Q301 1033 300 1000T299 948ZM96 76Q93 111 92 158T91 241T91 342T92 442Q92 476 93 540T94 633Q94 685 93 765T92 868Q92 908 99 963T106 1049Q106 1069 99 1141T92 1260Q92 1281 92 1290T94 1322T100 1357T112 1386T132 1413T162 1429T205 1436Q233
1436 308 1442T430 1444Q452 1442 494 1431T553 1417Q609 1406 648 1372T708 1289T736 1188T745 1077Q745 1020 743 987T728 910T690 834Q686 829 674 814T655 788T649 762T653 740T673 715T698 688Q776 595 776 408Q776 240 729 156Q686 80 613 41T457 2Q445 2
422 4T389 6Q385 6 361 4T302 0T188 0Q140 1 120 19T96 76ZM307 233Q312 188 381 188Q466 188 503 214T559 295Q565 312 567 334T569 373T568 422T567 471Q567 574 519 610T358 647Q319 647 310 630T301 555Q301 528 300 470T299 383Q299 300 307 233ZM451 778Q451
764 463 764Q473 764 473 772Q473 786 463 786Q451 786 451 778Z" />
<glyph unicode="c" glyph-name="c" horiz-adv-x="790" d="M74 307Q67 354 71 464T74 621Q72 713 73 749T78 832T82 891Q83 915 77 953T70 995Q70 1186 106 1280Q110 1289 125 1310T143 1335Q179 1387 253 1419T397 1452Q460 1452 515 1429T608 1367T670 1289T705
1210Q721 1152 724 1100T723 1018Q723 996 710 981T670 965Q656 964 629 956T586 948Q556 948 541 963T526 1001Q526 1098 520 1130Q507 1195 475 1223T401 1251Q372 1251 351 1241T316 1216T294 1176T281 1128T276 1070T276 1009T278 946T279 885L280 816Q282
746 279 745Q271 684 277 530T283 330Q278 260 313 217T403 174Q456 174 491 213T526 305Q526 330 529 383T532 461Q532 518 575 518Q576 518 591 519T621 520T655 518T689 511T713 494T723 467V367Q723 271 702 193Q683 114 637 66T534 1T403 -16Q320 -16 233
31Q225 36 207 43T179 57T157 77T135 111Q133 116 123 138T110 169T98 198T87 233T79 267T74 307ZM496 94Q496 100 495 102T485 104Q432 104 432 90Q432 72 446 72Q496 72 496 94Z" />
<glyph unicode="d" glyph-name="d" horiz-adv-x="835" d="M205 -4Q182 -4 167 -2T131 10T101 43T90 102Q90 124 93 171T96 240Q96 247 95 259T93 287T90 313Q87 386 88 519T88 762Q88 765 86 840T84 938Q86 969 84 1031T84 1130Q87 1178 86 1252T88 1346Q94 1392
124 1414T199 1436Q236 1436 307 1432T440 1427Q654 1427 717 1272Q770 1140 770 1042Q770 997 766 899T762 743Q762 706 766 638T770 539Q770 534 768 517T764 460T762 356Q762 265 741 200T666 76Q650 58 632 45T589 24T548 11T498 4T452 2T399 1T350 2Q342 2
299 -1T205 -4ZM301 244Q305 206 325 198T412 190Q469 190 518 226T567 315Q567 354 565 432T563 549Q563 572 567 621T571 707Q571 742 569 809T567 911Q567 964 557 1139Q554 1189 521 1215T442 1241Q427 1241 396 1246T350 1251Q297 1251 297 1188Q297 1168
298 1129T299 1057T297 997Q296 979 297 934T297 870Q291 780 293 726T300 583T305 444Q305 442 302 352T301 244ZM119 223Q119 205 131 205Q141 205 141 217Q141 223 136 228T125 233T119 223Z" />
<glyph unicode="e" glyph-name="e" horiz-adv-x="753" d="M98 74Q98 95 97 120T96 164Q96 207 98 288T100 408Q100 509 101 587T104 705T107 769T110 803T111 813Q111 841 107 907T102 1014Q102 1021 99 1089T96 1165Q96 1180 97 1217T98 1278Q98 1293 97 1321T96
1362Q96 1389 113 1410T160 1432Q179 1432 222 1436T279 1440Q289 1440 327 1437T371 1434T497 1436T623 1434Q653 1433 664 1419T678 1372Q679 1367 681 1354T684 1327T686 1300Q686 1279 677 1261T645 1241Q570 1236 491 1236T377 1233Q350 1231 334 1222T310
1195T301 1162T299 1122Q299 1106 302 1072T305 1024L306 954Q306 883 305 883Q304 841 323 831T424 821Q434 821 467 819T510 817Q518 817 535 819T561 821Q576 821 587 816T603 804T611 785T614 766T615 746T614 731Q614 723 614 708T615 687T614 670T611 655T605
643T596 634T581 629T561 627Q554 627 524 628T477 629Q437 625 356 629Q337 630 326 621T315 594Q315 574 312 524T309 444Q313 342 313 258Q313 233 330 216T373 199Q391 200 433 199T494 199Q495 202 550 200L604 199Q686 199 686 139Q686 126 680 95T674 47Q674
24 661 12T627 0Q596 -2 536 1T446 2Q411 -1 372 -1T280 -1T205 0Q160 0 129 18T98 74ZM209 68Q204 77 199 78Q194 78 189 75T182 70T176 61T170 53Q166 47 169 42T180 37Q209 37 209 68Z" />
<glyph unicode="f" glyph-name="f" horiz-adv-x="698" d="M100 66Q100 81 96 159T96 256Q100 279 96 340T92 410Q92 460 97 487T102 518Q102 522 97 542T92 582Q92 596 94 678T94 788Q94 801 98 896T96 1057Q93 1104 92 1151T91 1227T94 1300T96 1364Q96 1392
114 1414T162 1436Q167 1436 253 1439T360 1442Q384 1442 421 1440T497 1437T588 1442Q616 1444 646 1428T676 1368V1294Q676 1275 662 1261T629 1247Q615 1248 578 1246T532 1243Q384 1243 352 1241Q321 1239 312 1205Q309 1194 305 1159Q302 1135 305 1086T305
993Q300 939 309 850Q310 828 315 816T333 799T355 792T389 791Q462 791 479 788Q492 786 513 790T545 795Q588 795 596 752Q605 695 596 639Q593 619 572 611T487 602Q390 602 350 594Q334 590 325 581T312 553T308 526T307 492V381Q307 312 299 285T291 248Q291
242 298 235T307 213Q311 169 307 80Q306 35 292 21T242 6Q232 6 209 1T172 -2Q100 12 100 66ZM252 215Q252 205 262 205Q273 211 274 215Q274 223 262 223Q252 223 252 215Z" />
<glyph unicode="g" glyph-name="g" horiz-adv-x="798" d="M80 281Q76 328 74 405T76 526Q81 550 76 639Q75 658 73 699T69 762T67 814T66 870T70 918Q75 959 76 1024T78 1108Q88 1244 135 1312T283 1415Q299 1419 331 1433T395 1448Q472 1448 536 1424T651 1325Q670
1297 683 1268T703 1219T713 1165T717 1120T718 1068T717 1020Q717 956 678 956Q665 956 634 952T588 948Q556 951 540 967T524 1006Q524 1020 526 1053T528 1102Q528 1158 499 1205T408 1253Q348 1253 316 1208T283 1102Q283 1067 284 1028T286 965T283 915Q273
849 283 722T291 565Q288 530 288 492T289 408T291 336Q291 267 317 223T401 178Q443 178 470 193T508 238T523 298T524 371Q518 458 518 549Q518 583 512 592T477 602Q462 602 453 603T435 614T426 641Q426 652 421 679T418 739Q419 764 435 775T483 793Q506 797
531 797T587 795T633 793Q680 793 698 771T717 682Q717 669 720 586T719 489Q716 479 718 430T721 369Q721 -16 410 -16Q370 -16 335 -8T284 8T238 34T199 57Q146 87 116 145T80 281ZM205 983Q205 952 233 952Q248 952 248 971Q248 980 237 986T215 993Q208 993
207 992T205 983Z" />
<glyph unicode="h" glyph-name="h" horiz-adv-x="874" d="M571 102Q574 151 570 271T571 446Q587 609 514 618Q490 623 433 620T350 618Q334 619 324 615T309 601T301 582T297 555Q293 517 293 453T291 348Q288 310 292 240T297 147Q297 143 297 125T298 98T296
72T290 46T278 26T258 11T229 6Q208 -2 178 -2Q131 -2 109 15T88 72Q89 106 83 289T84 541Q88 584 88 737Q88 787 87 861T86 952Q86 1023 94 1087Q96 1109 91 1207T86 1341Q86 1386 104 1408T145 1432Q149 1432 163 1433T185 1435T205 1435T227 1435T246 1430Q285
1414 293 1372Q297 1358 298 1296T295 1157Q288 1043 297 872Q299 833 314 821T377 813Q392 814 433 812T500 809Q546 809 559 830T573 897Q573 935 570 1005T567 1106Q567 1128 569 1242T571 1370Q571 1434 662 1434Q724 1434 752 1419T780 1354Q780 1271 774
1124T768 942Q768 927 766 896T764 846Q764 836 770 793T778 700Q780 640 780 264Q780 229 776 195T772 160Q772 142 776 105T780 47Q780 26 769 10T737 -6Q718 -6 686 -3T635 0Q598 0 583 18T571 102ZM731 111Q731 100 743 100Q752 100 752 111Q752 123 751 125T743
127Q738 127 736 127T733 123T731 111Z" />
<glyph unicode="i" glyph-name="i" horiz-adv-x="389" d="M96 74Q92 112 95 234T94 430Q93 444 94 478T96 541Q96 555 95 602T93 691T94 805Q96 845 91 947T92 1085Q93 1093 92 1124T90 1185T88 1219Q88 1248 91 1298T94 1368Q94 1395 111 1411T158 1432Q177 1435
244 1430Q305 1426 305 1368Q304 1368 304 1242L305 1116Q305 1065 301 1024Q298 989 302 840T303 608Q298 487 300 410T307 307Q310 293 305 246Q302 221 305 162T305 70Q302 33 287 17T233 0Q224 0 200 2T164 4Q133 1 116 18T96 74ZM217 287Q217 264 240 264Q258
264 258 283Q258 305 236 305Q217 305 217 287Z" />
<glyph unicode="j" glyph-name="j" horiz-adv-x="524" d="M43 39Q33 88 37 121Q41 155 56 168T106 185T154 195Q192 208 212 247T233 332Q242 643 236 821Q234 870 236 995T233 1167Q231 1196 234 1246T238 1317Q238 1318 238 1328T238 1343T238 1357T240 1373T244
1387T250 1401T259 1412T272 1422T288 1427T309 1430Q318 1430 333 1432T361 1434T387 1430Q420 1418 429 1406Q440 1392 440 1366Q440 1341 443 1253T446 1104Q446 1054 443 954T440 838Q440 829 437 794T434 705Q434 651 442 530Q446 448 446 348Q446 238 401
160Q398 154 386 133T369 102T354 80T332 57Q254 -6 125 -6Q107 -6 98 -5T75 -1T54 13T43 39ZM260 1296Q260 1284 274 1284Q283 1284 283 1296Q283 1311 268 1311Q260 1311 260 1296Z" />
<glyph unicode="k" glyph-name="k" horiz-adv-x="847" d="M98 70Q105 99 101 291T98 541Q99 670 94 794T92 965Q93 990 93 1036T94 1122T92 1198V1233Q92 1242 95 1308T98 1384Q98 1438 172 1438Q181 1438 202 1435T233 1432Q279 1432 295 1418T311 1378Q311 1358
306 1338T301 1309Q301 1285 307 1245T313 1178Q313 1160 312 1044T313 909Q313 879 336 879Q357 879 383 928L489 1145Q507 1182 540 1264T596 1391Q609 1418 625 1428T668 1438Q671 1438 707 1435T752 1432Q803 1432 803 1397Q803 1360 788 1331Q773 1298 736
1226T680 1110Q663 1069 627 998T578 899Q566 874 561 863T549 825T544 773T559 719Q560 716 575 667T608 588Q625 560 641 508T664 442Q748 242 795 115Q804 89 805 67T793 27T745 8Q738 8 715 5T677 2T635 6Q613 14 601 41T581 105T569 152Q563 167 539 203T504
264Q488 298 474 338T442 430T414 508Q410 521 399 531T377 541Q348 541 328 497T307 418Q307 401 308 372T310 319T307 272Q299 199 299 160V66Q299 37 281 21T229 4Q219 4 199 1T168 -2Q133 -2 116 17T98 70ZM133 1126Q133 1110 143 1110Q160 1110 160 1126Q160
1141 147 1141Q133 1141 133 1126Z" />
<glyph unicode="l" glyph-name="l" horiz-adv-x="694" d="M100 41Q92 56 91 69T91 103T94 135Q94 160 97 206T100 276Q100 288 97 309T94 342Q86 398 94 485Q98 544 96 658T96 829Q99 884 98 1007T100 1192Q102 1222 98 1283T94 1370Q94 1436 158 1436Q171 1436
199 1430T242 1425Q277 1429 295 1406T313 1331Q313 1274 310 1212T307 1126Q307 1121 308 1091T309 1014Q308 982 310 849T307 684Q302 670 305 545T309 393Q309 376 305 347T301 303Q301 294 307 250Q312 219 320 209T356 195Q376 192 415 192T479 188Q506 185
553 186T627 186Q670 182 670 143Q670 136 670 119T671 86T670 61Q667 29 650 15T592 0Q477 0 397 4Q348 5 337 5T279 2T170 -2Q149 -2 133 7T113 22T100 41ZM209 68Q204 77 199 78Q194 78 189 75T182 70T176 61T170 53Q166 47 169 42T180 37Q209 37 209 68Z" />
<glyph unicode="m" glyph-name="m" horiz-adv-x="1107" d="M831 55Q830 65 836 84T842 113Q842 126 834 151T825 195Q825 336 824 458T823 582Q823 586 823 619T824 671T822 716T816 756T805 770Q769 770 733 496Q725 431 700 304T674 168Q667 121 664 103T653
60T637 27T614 18Q605 18 581 11T539 2Q499 -2 474 15T438 88L406 283Q366 496 350 545Q340 577 330 637T312 733T293 770Q266 770 266 727Q266 565 270 463Q274 461 272 271T270 78Q270 6 223 6Q208 7 201 7T178 3T158 0Q125 -4 108 16T90 78Q90 134 87 297T84
551Q84 584 87 653T90 760Q90 764 87 833T84 918Q93 1131 84 1335Q81 1390 104 1413T162 1436Q174 1436 209 1432T264 1427Q274 1427 297 1428T333 1429T358 1423Q368 1419 375 1413T389 1384T403 1323L471 979Q472 971 475 951T482 909T489 868Q492 839 518 678Q522
655 526 628T531 586T536 559T545 540T559 535Q563 535 567 537T573 542T578 550T582 560T585 572T587 584T588 595T589 605T590 614Q590 617 597 649T604 692Q604 725 608 756T624 850T645 971Q651 1011 666 1085T688 1196Q708 1316 711 1356Q715 1403 749 1419T844
1436Q847 1436 853 1436Q898 1436 917 1436T961 1431T994 1419T1010 1395T1020 1356Q1024 1321 1024 1282T1022 1196T1020 1122Q1020 1099 1021 1021T1022 863T1018 684Q1018 658 1016 608T1014 526T1014 451T1018 371Q1022 330 1022 282T1022 165T1020 61Q1020
25 999 13T913 0Q879 0 861 8T838 27T831 55ZM604 66Q604 51 614 51Q620 51 625 59T631 74Q631 80 621 80Q604 80 604 66Z" />
<glyph unicode="n" glyph-name="n" horiz-adv-x="874" d="M528 74Q502 133 482 228T446 373Q438 409 417 473T387 569Q368 643 362 659Q350 694 344 719T333 775T324 821Q317 854 295 854Q285 854 278 834T270 793Q270 727 277 645T285 524Q285 506 282 470T279
414Q279 346 275 234T270 74Q270 50 260 35T231 18Q221 17 201 9T162 0Q122 0 104 13T84 61Q80 165 80 414Q80 440 82 481T84 541Q84 588 80 689T76 850Q76 870 78 910T80 971Q80 982 83 1049T86 1130Q86 1173 90 1251T94 1354Q94 1393 119 1412T172 1432Q180 1432
229 1433T291 1434Q317 1434 337 1416T365 1362Q373 1322 394 1252T422 1149Q432 1106 449 1045T471 958Q474 941 490 904T510 852Q513 842 516 821T522 786T533 762T553 750Q575 750 575 772Q581 1020 580 1067Q577 1129 581 1211T582 1337Q580 1365 583 1383T596
1412T614 1425T637 1434Q651 1441 678 1437T713 1434Q742 1436 762 1419T782 1366Q782 1343 776 1297T770 1225Q770 1212 773 1176T776 1124Q772 1033 775 950T776 831Q768 739 773 563T776 332Q773 271 773 220T773 143T775 97T776 72Q776 39 760 20T709 0Q699
0 678 0T647 -1T621 0T594 7T571 20T548 41T528 74ZM707 1303Q702 1296 704 1292T715 1288Q726 1288 729 1303Q730 1306 732 1311Q736 1319 731 1319Q719 1319 707 1303Z" />
<glyph unicode="o" glyph-name="o" horiz-adv-x="811" d="M94 233Q82 301 82 430Q82 445 83 468T84 504Q84 512 79 547T74 614Q74 639 78 737T82 883Q82 913 78 971Q73 1068 81 1136T127 1282Q171 1373 235 1411T393 1450Q443 1450 509 1430T590 1368Q596 1347
604 1338T633 1317Q641 1312 647 1308T658 1298T667 1289T674 1277T680 1266T685 1251T689 1236T694 1217T700 1196Q729 1088 729 977Q729 937 728 890T727 813Q727 775 729 647T731 457T729 356T719 260T691 156T637 70Q600 26 527 5T393 -16Q274 -16 195 53T94
233ZM295 287Q302 232 341 203T442 174Q465 174 494 210T526 274Q534 384 530 430Q529 446 537 470T545 506T538 543T530 586Q520 791 520 895Q520 920 524 979T528 1065Q528 1096 523 1124T505 1180T467 1226T406 1243Q360 1243 331 1212T299 1135Q295 1078 299
939T297 758Q293 730 293 698T293 615T295 537Q295 525 298 502T301 467Q301 453 295 385T295 287ZM119 223Q119 205 131 205Q141 205 141 217Q141 223 136 228T125 233T119 223Z" />
<glyph unicode="p" glyph-name="p" horiz-adv-x="772" d="M90 68Q78 211 90 354Q91 367 90 383T88 408Q88 421 91 450T94 494Q94 524 91 584T88 676Q88 704 91 759T94 842Q94 930 90 969Q86 987 90 1062T94 1155Q94 1239 90 1280Q89 1291 91 1318T94 1360Q94 1383
113 1406T176 1430Q214 1430 284 1433T393 1436Q437 1436 471 1430T520 1419T573 1399Q616 1381 647 1351T696 1288T724 1209T736 1124T739 1032Q739 992 738 925T737 848Q737 694 627 612Q589 582 561 568T492 551Q483 551 435 545T340 539Q321 539 310 528T299
498Q299 467 294 413T289 332Q289 322 292 301T295 254V76Q295 28 266 12T174 -4Q133 -4 114 8T90 68ZM295 924Q295 828 299 801Q303 777 312 763T339 743T370 736T408 735Q461 735 500 772T539 879Q539 888 540 913T542 957T537 993Q532 1015 531 1039T531 1095T532
1130Q532 1243 373 1243Q341 1243 322 1239T296 1227T287 1212T285 1194Q285 1191 285 1190Q285 1177 291 1166T299 1145Q303 1128 303 1051Q303 1032 299 990T295 924ZM258 1188Q258 1198 252 1198T241 1193T236 1182Q236 1169 246 1169Q258 1169 258 1188Z" />
<glyph unicode="q" glyph-name="q" horiz-adv-x="811" d="M674 139Q674 124 683 116T729 98Q749 94 756 84T764 55V-16Q764 -21 767 -34T768 -59Q762 -88 719 -88Q696 -88 660 -78T604 -53Q585 -40 568 -26T543 -6T528 0Q505 0 465 -7T397 -14Q318 -14 274 4Q244
17 229 24T192 47T156 82Q132 113 116 147T92 205T80 274T76 338T76 416Q76 420 74 439T72 477Q72 489 74 529T76 596Q76 629 72 687T67 779T72 874Q76 911 72 1034Q70 1096 78 1138T117 1219Q126 1230 137 1271T166 1339Q200 1392 263 1421T395 1450Q462 1450
527 1429T627 1364Q681 1295 695 1267Q719 1218 719 1143V1034Q719 1019 725 964T731 852Q731 831 727 653T729 455Q734 369 727 308T708 221T685 175T674 139ZM279 283Q279 241 313 211T395 180Q445 180 479 211T512 289Q510 346 515 443T520 575Q520 593 516
620T512 659Q512 664 516 693T520 774Q520 800 516 921T512 1128Q512 1186 481 1225T393 1264Q353 1264 328 1249T290 1203T274 1139T270 1053Q270 1031 274 983T279 922Q279 909 279 893T280 861T281 832T282 810L283 801Q283 733 278 603T272 406Q272 389 276
368T281 340Q281 331 280 312T279 283ZM670 985Q670 971 682 971Q692 971 692 979Q692 993 682 993Q670 993 670 985Z" />
<glyph unicode="r" glyph-name="r" horiz-adv-x="823" d="M295 860Q295 801 308 789T373 776Q412 776 440 787T485 817T512 862T525 916T530 974T530 1033Q530 1052 530 1061Q530 1163 467 1223Q460 1229 452 1233T432 1238T411 1239T381 1240T348 1239Q316 1239
306 1225T299 1174Q306 1118 301 993T295 860ZM88 51Q82 90 86 184Q88 229 86 337T86 508Q87 514 89 535T92 571Q92 582 89 601T86 631Q86 657 91 716T96 809V924Q96 939 99 975T102 1028Q102 1032 93 1069T88 1147Q92 1154 90 1248L88 1341Q88 1391 118 1409T205
1434Q226 1440 327 1435T453 1430Q559 1430 629 1384T719 1239Q720 1234 730 1194T739 1133Q736 1080 738 1045T739 966T725 879Q710 821 690 786Q684 776 669 759T645 728T635 702Q635 693 639 684T648 669T666 648T690 621Q745 553 741 397Q740 369 742 280T741
160Q740 146 745 47Q747 26 736 13T705 0Q693 0 672 -1T632 -3T598 0Q532 12 532 100L533 162Q534 223 532 223Q528 335 528 428Q528 494 483 541T373 588Q325 588 312 570T299 508Q299 478 300 419T301 334Q301 311 300 273T299 215Q299 198 300 167T301 119Q301
117 301 112Q301 91 300 80T295 50T279 22T248 8Q243 8 227 4T194 -2T141 -2Q96 2 88 51ZM338 1346Q338 1360 321 1379T291 1399Q287 1396 287 1391T291 1374T295 1358Q295 1349 305 1342T328 1335Q335 1335 336 1337T338 1346Z" />
<glyph unicode="s" glyph-name="s" horiz-adv-x="765" d="M299 -6Q277 -2 263 3T237 16T221 29T206 49T190 70Q169 98 121 131Q106 140 95 155T78 192T67 232T61 279T59 322T58 367T59 403Q59 429 72 445T113 461Q131 462 149 470T203 479Q215 479 223 476T237
463T246 446T251 422T253 396T253 365T254 334Q255 301 259 278T276 230T315 193T381 180Q437 180 469 213T502 303Q502 364 483 430T426 532Q399 557 374 585T335 627T303 647Q280 656 253 685T202 746T172 784Q63 903 63 1135Q63 1246 147 1348T340 1450Q401
1450 448 1444T538 1420T613 1375T667 1301T702 1192Q704 1184 709 1167T716 1137T719 1110Q719 1071 704 1044T649 1020Q580 1020 559 1022Q533 1025 522 1050T507 1110T496 1177T464 1234T393 1257Q342 1257 307 1225T272 1141Q272 1103 291 1020Q304 966 332
925T410 838Q420 828 442 810T483 773T516 737Q526 725 536 704T559 672Q609 631 645 575Q673 533 689 478T705 381Q705 336 705 313T701 251T692 189T673 135T642 83T595 42T530 6Q464 -18 436 -18Q365 -18 299 -6ZM174 1100Q174 1083 188 1083Q203 1083 203 1100Q203
1114 188 1114Q183 1114 179 1109T174 1100Z" />
<glyph unicode="t" glyph-name="t" horiz-adv-x="724" d="M266 61Q266 65 261 132T256 217Q256 246 257 301T258 389Q258 403 266 431T274 477Q274 484 268 514T262 555Q262 603 259 694T256 821Q256 843 261 871T266 915Q266 979 265 1028T262 1104T260 1139Q260
1140 260 1150T260 1165T259 1180T257 1196T252 1209T244 1221T232 1228T215 1231Q201 1231 176 1231Q88 1230 62 1237T35 1276Q35 1290 31 1319T27 1362Q27 1375 28 1384T32 1402T39 1415T49 1423T65 1429T85 1432T112 1433T144 1433T184 1433T231 1432Q243 1432
340 1433T453 1434Q485 1434 504 1428T553 1421Q567 1421 596 1425T662 1430Q689 1430 699 1412T709 1339Q709 1274 683 1257Q658 1240 559 1239Q552 1239 496 1239Q487 1239 481 1233T471 1215T465 1191T462 1160T461 1129T460 1097T461 1069Q461 1063 461 1038T462
946T463 774Q463 754 458 724T453 672Q453 660 459 631T467 578Q470 521 470 452T471 336T469 205T467 86Q467 40 454 20T412 0Q399 0 375 -2T328 -4Q266 -4 266 61ZM440 545Q440 553 432 553Q425 553 419 543T412 528Q412 512 422 512Q440 512 440 545Z" />
<glyph unicode="u" glyph-name="u" horiz-adv-x="815" d="M186 1434Q196 1434 215 1431T246 1427Q276 1427 285 1398T295 1305Q295 1280 292 1230T289 1157Q289 1145 286 1119T283 1079Q283 1052 287 999T291 920V733Q291 696 290 635T289 563Q289 530 283 505T276
477Q276 465 283 442T291 406Q291 252 319 203T436 154Q474 154 500 190T537 272T547 367Q547 420 541 536T535 700Q535 722 537 762T539 821Q539 866 536 959T532 1098Q532 1118 533 1141T535 1180Q535 1205 536 1261T537 1348Q537 1418 586 1427Q600 1431 635
1428T686 1427Q703 1429 717 1416T733 1384Q735 1335 731 1258T727 1167Q727 1152 728 1121T729 1073V872Q729 850 731 804T733 733Q733 714 731 687T729 649Q729 630 731 579T733 510Q733 322 729 305Q720 262 705 240T681 207T672 174Q672 168 675 155T678 135Q678
107 646 72T586 23Q498 -16 389 -16Q317 -16 263 6T150 90Q121 121 106 173T89 265T86 367Q86 435 91 587T96 809Q96 831 91 936T86 1114Q86 1159 90 1241T94 1356Q94 1402 118 1418T186 1434ZM647 188Q647 201 641 201Q631 201 625 180Q624 176 627 173T635 170Q642
170 644 173T647 188Z" />
<glyph unicode="v" glyph-name="v" horiz-adv-x="823" d="M555 1087Q570 1189 598 1214Q603 1219 609 1220T618 1221T624 1224T627 1237Q627 1243 624 1248T616 1261T608 1274Q604 1282 602 1294T600 1315T599 1341T600 1366Q600 1425 649 1425Q667 1425 693 1429T731
1434Q746 1434 756 1428T772 1416T779 1395T782 1375T782 1354Q782 1322 774 1275T754 1169T737 1085L590 100Q582 44 565 23T502 2Q472 2 431 1T370 -1T325 1T287 11T262 34T244 74Q236 103 233 126T226 186T221 244Q211 333 197 418T161 613T127 803Q121 841
111 924T92 1059Q49 1309 49 1362Q49 1410 69 1423T143 1436Q205 1436 229 1421T254 1362Q254 1280 282 1127T313 958Q330 828 348 724T375 569T387 487Q394 406 422 406Q438 406 447 435T470 540T496 662Q496 664 497 672T501 694T506 719Q524 839 526 891Q526
923 555 1087Z" />
<glyph unicode="w" glyph-name="w" horiz-adv-x="1153" d="M145 641Q142 667 131 719T115 817Q108 897 94 1030Q77 1176 76 1186Q74 1205 80 1236T84 1298Q83 1309 73 1340T63 1386Q63 1398 66 1406T77 1420T90 1428T109 1433T129 1434T151 1435T172 1434Q238
1434 246 1380Q248 1366 259 1282T272 1184Q287 1063 305 874T338 569Q353 440 375 440Q395 440 408 621Q411 649 420 725T433 841T442 944T449 1063Q453 1162 485 1372Q488 1392 495 1405T510 1426T534 1436T559 1439T591 1440Q600 1440 604 1440Q686 1440 694
1380Q710 1264 715 1176Q715 1115 737 948Q740 924 742 874T748 795Q750 781 759 704T770 614Q770 611 773 584T776 555Q776 539 785 511T809 483Q825 483 833 504T842 541Q861 743 862 795Q864 849 880 957T897 1120Q897 1145 900 1175T906 1222T916 1278T926
1329Q927 1338 928 1362T932 1399T943 1424T971 1436Q984 1436 1013 1438T1063 1440Q1080 1440 1092 1431T1104 1405Q1104 1342 1075 1202Q1075 1187 1070 1145T1065 1073Q1065 1001 1049 858L1018 623Q1004 518 1004 485Q1002 469 1000 442T995 392T989 344Q967
137 965 111Q963 87 959 69T947 39T931 19T909 7T882 0T847 -2T806 -2Q789 -2 780 -2Q707 -2 683 12T659 57Q653 107 647 208T637 352Q637 371 630 411T621 469Q619 484 615 529T604 606Q599 645 582 645Q567 645 563 625Q559 594 548 531T532 426Q523 320 508
203Q506 192 506 164T505 111T497 62T474 23T428 8Q410 8 356 3T266 -2Q240 -2 223 12T200 47T190 93T188 142T188 184Q185 238 174 331T160 457Q158 480 154 538T145 641ZM494 492T494 467T508 442Q520 442 520 467T508 492Q494 492 494 467Z" />
<glyph unicode="x" glyph-name="x" horiz-adv-x="880" d="M672 -2Q616 -2 604 37Q599 50 588 81T570 130T556 174T545 221Q540 252 522 310T500 381Q466 510 430 510Q420 510 413 504T398 480T384 443T363 384T336 307Q296 206 252 47Q247 31 237 21T208 7T177
3T138 2Q131 2 127 2Q92 2 79 22T74 74Q82 107 107 173T141 276Q149 304 169 358T197 440Q209 489 238 576T276 696Q293 743 276 786L176 1106Q172 1118 167 1142T155 1190T135 1239Q81 1342 84 1395Q85 1411 92 1419T107 1430T127 1432T143 1434Q178 1441 229
1434Q256 1431 273 1414T303 1356L362 1161L379 1112Q380 1108 384 1094T392 1067T401 1037T413 1007T425 982T439 963T455 956Q475 956 487 985Q490 991 495 1012T510 1059Q518 1081 537 1121T559 1182Q573 1259 604 1366Q619 1414 645 1428T735 1442Q807 1442
807 1403Q807 1376 797 1348Q791 1332 768 1271T732 1170T709 1092Q699 1054 685 1015T650 920T621 844Q592 769 602 717Q610 670 639 581T678 451Q691 392 724 311T764 205Q776 163 790 121T809 63Q811 50 811 36T802 11T778 0Q750 0 716 -1T672 -2ZM209 104Q209
92 221 92Q231 92 231 104Q231 118 225 119Q209 119 209 104Z" />
<glyph unicode="y" glyph-name="y" horiz-adv-x="811" d="M301 49Q295 87 301 137Q307 201 301 264Q298 294 297 329T296 387T298 433T299 459Q299 513 286 565T252 672T225 758Q204 845 152 1006Q80 1214 51 1325Q45 1347 43 1363T43 1397T60 1426T100 1436Q111
1436 139 1430T182 1425Q201 1429 216 1417T238 1386Q245 1364 257 1316T279 1239Q346 1037 371 915Q376 889 388 870T418 850T449 887Q456 911 471 958T496 1036Q502 1060 518 1132T551 1257Q563 1299 571 1323Q575 1334 579 1367T597 1413T643 1427Q659 1427
688 1425T737 1423Q747 1423 756 1417T769 1394T764 1352Q763 1350 743 1278Q736 1244 713 1176T682 1067Q666 993 641 910T582 729T532 573Q510 501 510 379Q510 358 506 286T506 209Q510 178 506 86Q503 25 480 12T379 -2Q348 -2 326 11T301 49ZM88 1292Q88 1282
98 1282Q106 1282 106 1292Q106 1300 98 1300Q88 1300 88 1292Z" />
<glyph unicode="z" glyph-name="z" horiz-adv-x="757" d="M68 115Q68 200 102 291Q133 366 190 504T286 740T354 913Q386 997 410 1026Q419 1040 428 1086T449 1161Q465 1203 453 1221T401 1239Q392 1239 375 1240T343 1242T315 1239Q296 1235 277 1235T233 1235T197
1237Q110 1237 91 1256T72 1362Q72 1427 121 1427Q132 1427 202 1430T293 1430Q337 1426 390 1426T508 1428T606 1430Q629 1430 645 1423T670 1407T682 1383T687 1358T688 1335Q688 1249 672 1208Q665 1191 638 1119T594 1010Q576 971 550 891T508 776Q438 622
396 502T344 362Q299 257 299 242Q299 198 336 190Q389 188 477 188Q488 188 536 191T633 195Q661 195 674 180T688 139Q688 130 687 108T686 76Q686 49 679 33T657 10T630 2T596 0Q591 0 562 -1T505 -2T459 0Q432 3 374 3T240 2T137 0Q117 0 103 9T82 29T72 60T69
88T68 115ZM551 1155Q551 1148 551 1147T557 1145Q569 1145 569 1155Q569 1163 557 1163Q551 1163 551 1155Z" />
<glyph unicode="{" glyph-name="braceleft" horiz-adv-x="526" d="M145 287Q145 343 143 386T138 456T133 497T127 524T123 539Q120 556 112 570T100 589T72 615T41 643Q26 655 24 691T31 760Q35 774 47 790T73 820T98 859T115 913Q121 955 131 1021T148 1131T154
1202Q154 1265 170 1311T210 1382T272 1423T342 1443T418 1448Q475 1448 475 1393Q475 1385 476 1369T478 1339T475 1311Q471 1287 452 1275T409 1253T375 1231Q324 1166 324 1030Q324 900 305 829Q301 811 274 776T246 717Q246 703 253 692T274 666T293 643Q330
585 330 506Q330 499 329 440T329 354T337 285T360 217Q372 197 393 186T430 170T460 151T473 106Q473 -10 426 -10Q303 -10 239 30T158 174Q145 258 145 287Z" />
<glyph unicode="|" glyph-name="bar" horiz-adv-x="1024" d="M446 205L453 371Q452 386 450 412T444 512T437 653T435 801T442 938Q445 962 445 1015T445 1139T444 1219Q444 1245 443 1278T441 1334T440 1360Q440 1382 443 1443T446 1516Q446 1556 526 1556Q600
1556 600 1507Q600 1412 592 1153T588 752Q589 724 585 669T580 598Q580 592 583 577T589 527T592 440Q592 223 600 -25Q602 -87 588 -105T524 -123Q479 -123 464 -108T446 -61Q439 45 446 205Z" />
<glyph unicode="}" glyph-name="braceright" horiz-adv-x="526" d="M66 82Q66 117 74 137T93 163T123 178T156 197Q198 229 201 336Q206 539 213 575Q217 602 230 625T256 660T280 689T291 723Q291 744 270 768T246 799Q213 849 213 936Q213 1068 199 1157Q194
1189 179 1208T147 1234T112 1249T81 1270T63 1311Q56 1367 63 1401Q73 1444 135 1444Q198 1444 230 1430T311 1372Q353 1333 375 1278T400 1166T402 1056T403 953T422 877Q433 857 450 840T480 812T502 778T512 721T503 664T481 632T452 609T428 582Q401 535 401
465V311Q401 278 390 233T377 172Q370 125 353 92T313 40T261 11T204 -4T145 -11Q134 -11 129 -12Q107 -14 94 -7T75 17T68 47T66 82Z" />
<glyph unicode="~" glyph-name="asciitilde" horiz-adv-x="811" d="M319 680Q291 702 254 702Q233 702 214 694T184 676T156 649Q135 629 123 626T86 637Q79 642 63 645T37 659Q23 677 23 689T37 721Q75 779 133 820T258 862Q294 862 336 842T411 799T485 755T561
735Q585 735 607 748T643 779T675 809T709 823Q734 823 758 794T782 739Q782 705 766 692Q760 687 741 668T709 638T678 623Q675 622 638 601T565 580Q457 580 319 680Z" />
</font>
</defs>
</svg>
